<svg xml:space="preserve" style="enable-background:new 0 0 255.975 251.146;" viewBox="0 0 255.975 251.146" height="251.146px" width="255.975px" y="0px" x="0px" xmlns:xlink="http://www.w3.org/1999/xlink" xmlns="http://www.w3.org/2000/svg" id="Layer_1" version="1.1">
<g id="Layer_1_1_">
	<path d="M252.896,115.048c0-42.68-33.093-77.271-73.912-77.271c-0.636,0-1.262,0.031-1.894,0.049
		C164.203,15.18,140.573,0,113.541,0C72.72,0,39.628,34.6,39.628,77.28c0,0.554,0.029,1.1,0.04,1.652
		C17.342,92.227,2.277,117.317,2.277,146.104c0,42.678,33.097,77.27,73.914,77.27c2.321,0,4.615-0.123,6.887-0.342
		c13.558,4.969,28.41,28.115,58.025,28.115c37.732,0,44.027-39.433,72.33-67.734C235.71,157.267,252.896,144.715,252.896,115.048z" style="fill:#E3F2F7;"></path>
	<g style="display:none;" id="Layer_3_3_">
		<g style="display:inline;">
			<g>
				<path d="M83.635,140.439c0-11.564-10.059-20.938-22.467-20.938c-0.194,0-0.385,0.014-0.576,0.019
					c-3.917-6.139-11.102-10.245-19.318-10.245c-12.404,0-22.469,9.372-22.469,20.935c0,0.15,0.009,0.297,0.012,0.447
					c-6.78,3.602-11.36,10.397-11.36,18.197c0,11.562,10.059,20.934,22.468,20.934c0.705,0,1.403-0.033,2.092-0.094
					c4.122,4.646,10.358,7.617,17.335,7.617c11.471,0,20.925-8.015,22.293-18.354C78.772,155.451,83.635,148.477,83.635,140.439z" style="fill:#D7F7E4;"></path>
				<path d="M49.351,178.81c-6.89,0-13.388-2.749-17.95-7.568c-0.499,0.03-0.993,0.045-1.477,0.045
					c-13.216,0-23.968-10.063-23.968-22.434c0-7.767,4.327-14.996,11.353-19.075c0.247-12.172,10.902-22.004,23.964-22.004
					c8.092,0,15.715,3.898,20.109,10.228c13.117,0.108,23.752,10.132,23.752,22.438c0,8.109-4.625,15.513-12.124,19.502
					C71.165,170.754,61.14,178.81,49.351,178.81z M32.636,168.133l0.501,0.565c4.011,4.52,9.92,7.112,16.213,7.112
					c10.575,0,19.52-7.33,20.806-17.051l0.105-0.796l0.72-0.354c6.88-3.383,11.153-9.963,11.153-17.171
					c0-10.719-9.406-19.438-20.967-19.438c-0.097,0-0.192,0.004-0.288,0.009l-1.097,0.031l-0.456-0.714
					c-3.759-5.892-10.677-9.552-18.054-9.552c-11.562,0-20.969,8.718-20.969,19.435l0.029,1.34l-0.814,0.433
					c-6.516,3.461-10.564,9.926-10.564,16.872c0,10.716,9.406,19.434,20.968,19.434c0.637,0,1.296-0.029,1.96-0.088L32.636,168.133z" style="fill:#CCCCDE;"></path>
			</g>
			<path d="M60.789,118.75c-0.193,0-0.389,0.013-0.575,0.019
				c-3.141-4.918-8.383-8.534-14.573-9.775c4.898,1.229,9.023,4.208,11.562,8.175c0.161-0.004,2.416,3.89,2.583,3.89
				c10.646,0,15.601,5.734,15.601,15.655c0,6.896-2.583,11.291-8.704,14.306c-1.173,8.875-9.287,15.747-19.129,15.747
				c-5.99,0-11.34-2.546-14.877-6.53c-0.591,0.049-1.189,0.076-1.794,0.076c-10.649,0-19.013-5.051-19.013-14.972
				c0-6.682,2.985-9.973,8.432-13.938c-0.146-0.855-0.75-8.42,1.267-10.438c4.792-4.793,6.964-8.904,11.25-11.038
				c-8.414,3.025-14.385,10.628-14.385,19.535c0,0.148,0.009,0.299,0.012,0.447C11.655,133.51,7.076,140.3,7.076,148.1
				c0,11.562,10.059,20.938,22.468,20.938c0.707,0,1.398-0.035,2.093-0.098c4.121,4.646,10.356,7.617,17.336,7.617
				c11.469,0,20.924-8.017,22.291-18.354c7.133-3.506,11.997-10.479,11.997-18.52C83.258,128.123,73.199,118.75,60.789,118.75z" style="opacity:0.1;fill:#6E6E96;enable-background:new    ;"></path>
			<g>
				<path d="M28.811,151.761c0,0,11.635,2.273,11.635,13.658c0,0,3.137,19.347-8.976,33.027h27.96
					c-0.277-0.387-24.422-32.646,2.449-51.813C45.491,156.004,28.811,151.761,28.811,151.761z" style="fill:#EDE3DA;"></path>
				<path d="M59.43,199.947H28.138l2.208-2.494c11.508-12.998,8.648-31.606,8.618-31.793l-0.02-0.24
					c0-9.075-8.396-11.678-10.14-12.12c-0.239-0.053-0.364-0.084-0.364-0.084l0.657-2.927c0,0,0.14,0.027,0.393,0.09
					c0.935,0.204,4.231,0.841,8.798,0.841c5.724,0,14.334-1.021,22.845-5.888l1.616,2.522c-6.63,4.73-10.567,10.708-11.702,17.767
					c-2.415,15.029,8.337,30.228,9.571,31.911l1.75,2.387L59.43,199.947z M34.606,196.947H56.6
					c-3.447-5.394-10.64-18.567-8.514-31.802c0.803-5,2.847-9.499,6.1-13.452c-6.069,2.011-11.71,2.526-15.896,2.526
					c-0.462,0-0.913-0.006-1.349-0.018c2.653,2.276,4.971,5.784,5.005,11.1C42.206,167.039,44.38,183.637,34.606,196.947z" style="fill:#CCCCDE;"></path>
			</g>
			<g>
				<path d="M36.178,128.922" style="fill:#D57E58;"></path>
			</g>
			<path d="M54.905,151.73c0,0-17.649,22.793-4.085,46.721h8.611
				C59.43,198.451,41.515,173.414,54.905,151.73z" style="opacity:0.11;fill:#6E6E96;enable-background:new    ;"></path>
		</g>
		<g style="display:inline;">
			<g>
				<path d="M253.475,139.156c0-10.828-9.42-19.604-21.04-19.604c-0.183,0-0.355,0.009-0.539,0.014
					c-3.669-5.744-10.396-9.596-18.091-9.596c-11.62,0-21.041,8.773-21.041,19.604c0,0.141,0.009,0.279,0.012,0.418
					c-6.354,3.375-10.644,9.74-10.644,17.043c0,10.826,9.421,19.605,21.04,19.605c0.66,0,1.312-0.033,1.96-0.095
					c3.858,4.354,9.698,7.14,16.233,7.14c10.733,0,19.596-7.5,20.875-17.188C248.92,153.213,253.475,146.684,253.475,139.156z" style="fill:#D7F7E4;"></path>
				<path d="M221.365,175.185c-6.464,0-12.559-2.573-16.845-7.087c-0.455,0.027-0.906,0.042-1.349,0.042
					c-12.429,0-22.54-9.468-22.54-21.105c0-7.289,4.053-14.077,10.637-17.92c0.262-11.426,10.271-20.646,22.536-20.646
					c7.589,0,14.744,3.651,18.884,9.583c12.312,0.128,22.286,9.545,22.286,21.103c0,7.613-4.335,14.567-11.367,18.325
					C241.852,167.629,232.437,175.185,221.365,175.185z M205.749,164.98l0.506,0.57c3.735,4.217,9.243,6.635,15.11,6.635
					c9.857,0,18.192-6.829,19.388-15.885l0.105-0.796l0.72-0.354c6.413-3.153,10.396-9.282,10.396-15.995
					c0-9.982-8.766-18.104-19.54-18.104c-0.107,0-0.21,0.004-0.314,0.007l-1.032,0.028l-0.456-0.714
					c-3.508-5.492-9.956-8.903-16.827-8.903c-10.775,0-19.541,8.122-19.541,18.104l0.031,1.31l-0.815,0.433
					c-6.074,3.227-9.848,9.25-9.848,15.719c0,9.983,8.766,18.105,19.54,18.105c0.592,0,1.203-0.029,1.818-0.088L205.749,164.98z" style="fill:#CCCCDE;"></path>
			</g>
			<path d="M232.081,118.845c-0.188,0-0.358,0.009-0.539,0.013
				c-2.94-4.606-7.854-7.992-13.646-9.154c4.586,1.15,8.449,3.94,10.822,7.655c0.154-0.004,2.263,3.639,2.419,3.639
				c9.971,0,14.608,5.374,14.608,14.664c0,6.459-2.42,10.574-8.148,13.396c-1.1,8.311-8.698,14.737-17.914,14.737
				c-5.604,0-10.619-2.381-13.934-6.112c-0.562,0.047-1.112,0.067-1.687,0.067c-9.975,0-17.806-4.727-17.806-14.016
				c0-6.258,2.8-9.34,7.896-13.056c-0.14-0.811-0.698-7.89,1.188-9.771c4.485-4.488,6.521-8.343,10.534-10.337
				c-7.879,2.833-13.473,9.952-13.473,18.291c0,0.139,0.008,0.274,0.014,0.418c-6.354,3.373-10.646,9.736-10.646,17.041
				c0,10.824,9.421,19.604,21.041,19.604c0.661,0,1.313-0.032,1.959-0.094c3.859,4.355,9.699,7.139,16.234,7.139
				c10.739,0,19.594-7.5,20.875-17.188c6.68-3.285,11.229-9.813,11.229-17.342C253.122,127.623,243.702,118.845,232.081,118.845z" style="opacity:0.1;fill:#6E6E96;enable-background:new    ;"></path>
			<g>
				<path d="M202.135,149.758c0,0,10.896,2.138,10.896,12.802c0,0,2.938,18.104-8.402,30.928h26.184
					c-0.26-0.359-22.87-30.566,2.294-48.521C217.754,153.732,202.135,149.758,202.135,149.758z" style="fill:#EDE3DA;"></path>
				<path d="M230.813,194.987H201.3l2.205-2.494c10.745-12.149,8.074-29.52,8.046-29.693l-0.02-0.24
					c0-8.436-7.806-10.857-9.431-11.27c-0.221-0.049-0.336-0.078-0.336-0.078l0.659-2.926c0,0,0.13,0.024,0.364,0.083
					c0.876,0.191,3.958,0.787,8.235,0.787c5.346,0,13.388-0.953,21.339-5.493l1.615,2.523c-6.193,4.419-9.868,10.003-10.923,16.596
					c-2.249,14.062,7.798,28.227,8.951,29.796l1.755,2.388L230.813,194.987z M207.751,191.987h20.234
					c-3.271-5.143-9.863-17.358-7.893-29.679c0.736-4.604,2.591-8.759,5.536-12.42c-5.577,1.802-10.75,2.268-14.605,2.268
					c-0.347,0-0.686-0.003-1.017-0.01c2.418,2.149,4.491,5.414,4.524,10.295C214.781,164.106,216.784,179.529,207.751,191.987z" style="fill:#CCCCDE;"></path>
			</g>
			<g>
				<path d="M209.036,128.373" style="fill:#D57E58;"></path>
			</g>
			<path d="M226.571,149.73c0,0-16.526,21.344-3.819,43.752h8.062
				C230.808,193.482,214.032,170.035,226.571,149.73z" style="opacity:0.11;fill:#6E6E96;enable-background:new    ;"></path>
		</g>
		<g style="display:inline;">
			<g>
				<path d="M216.773,140.916c0-16.621-14.461-30.094-32.299-30.094c-0.278,0-0.554,0.012-0.828,0.019
					c-5.632-8.812-15.959-14.729-27.771-14.729c-17.838,0-32.301,13.475-32.301,30.096c0,0.215,0.014,0.433,0.018,0.646
					c-9.755,5.181-16.339,14.94-16.339,26.155c0,16.617,14.462,30.099,32.3,30.099c1.014,0,2.018-0.049,3.008-0.14
					c5.926,6.688,14.894,10.947,24.921,10.947c16.489,0,30.081-11.514,32.049-26.379
					C209.782,162.498,216.773,152.469,216.773,140.916z" style="fill:#D7F7E4;"></path>
				<path d="M167.482,195.416c-9.841,0-19.103-3.961-25.536-10.893c-0.805,0.057-1.606,0.085-2.393,0.085
					c-18.637,0-33.8-14.175-33.8-31.599c0-11.044,6.23-21.321,16.322-27.034c0.134-17.315,15.245-31.363,33.8-31.363
					c11.533,0,22.396,5.615,28.566,14.71c0.011,0,0.021,0,0.032,0c18.637,0,33.799,14.173,33.799,31.594
					c0,11.517-6.636,22.026-17.37,27.608C198.444,183.91,184.226,195.416,167.482,195.416z M143.18,181.405l0.504,0.568
					c5.879,6.637,14.553,10.442,23.798,10.442c15.53,0,28.67-10.78,30.562-25.076l0.105-0.795l0.72-0.354
					c10.119-4.974,16.404-14.658,16.404-25.275c0-15.767-13.816-28.594-30.799-28.594c-0.182,0-0.362,0.006-0.543,0.011
					l-1.094,0.028l-0.455-0.713c-5.533-8.658-15.69-14.036-26.507-14.036c-16.983,0-30.801,12.828-30.801,28.596
					c0,0.107,0.004,0.216,0.008,0.323l0.026,1.216l-0.813,0.433c-9.587,5.091-15.542,14.605-15.542,24.83
					c0,15.77,13.817,28.599,30.8,28.599c0.939,0,1.906-0.045,2.871-0.134L143.18,181.405z" style="fill:#CCCCDE;"></path>
			</g>
			<path d="M183.931,109.738c-0.276,0-0.552,0.012-0.827,0.019
				c-4.516-7.066-12.051-12.269-20.949-14.052c7.041,1.771,12.976,6.049,16.614,11.751c0.237-0.006,3.479,5.586,3.713,5.586
				c15.312,0,22.434,8.248,22.434,22.516c0,9.909-3.72,16.229-12.518,20.562c-1.687,12.754-13.353,22.635-27.5,22.635
				c-8.605,0-16.302-3.651-21.387-9.395c-0.851,0.069-1.71,0.113-2.58,0.113c-15.31,0-27.332-7.259-27.332-21.521
				c0-9.604,4.298-14.336,12.12-20.039c-0.209-1.229-1.077-12.104,1.82-15.002c6.89-6.89,10.011-12.808,16.174-15.868
				c-12.096,4.354-20.679,15.277-20.679,28.08c0,0.215,0.011,0.433,0.017,0.646c-9.756,5.177-16.34,14.942-16.34,26.155
				c0,16.617,14.461,30.099,32.3,30.099c1.017,0,2.017-0.049,3.008-0.138c5.925,6.688,14.895,10.945,24.922,10.945
				c16.487,0,30.078-11.514,32.046-26.379c10.259-5.043,17.244-15.066,17.244-26.623
				C216.231,123.211,201.77,109.738,183.931,109.738z" style="opacity:0.1;fill:#6E6E96;enable-background:new    ;"></path>
			<g>
				<path d="M137.959,157.193c0,0,16.727,3.271,16.727,19.643c0,0,4.504,27.812-12.899,47.48h40.19
					c-0.396-0.562-35.104-46.922,3.521-74.484C161.939,163.293,137.959,157.193,137.959,157.193z" style="fill:#EDE3DA;"></path>
				<path d="M181.977,225.816h-43.521l2.207-2.494c16.711-18.887,12.585-45.976,12.542-46.247l-0.02-0.239
					c0-13.556-12.513-17.42-15.085-18.07c-0.336-0.073-0.512-0.118-0.512-0.118l0.658-2.926c0,0,0.193,0.037,0.54,0.123
					c1.35,0.295,6.156,1.228,12.81,1.228c8.306,0,20.8-1.482,33.157-8.543l1.615,2.523c-9.665,6.897-15.411,15.62-17.08,25.928
					c-3.526,21.784,12.068,43.94,13.858,46.396l1.738,2.384L181.977,225.816z M144.976,222.816h34.147
					c-4.566-6.942-15.976-26.67-12.795-46.315c1.27-7.846,4.706-14.826,10.248-20.847c-9.523,3.546-18.482,4.418-24.979,4.418
					c-1.403,0-2.726-0.039-3.955-0.104c4.313,3.099,8.505,8.286,8.544,16.749C156.523,178.925,159.876,203.592,144.976,222.816z" style="fill:#CCCCDE;"></path>
			</g>
			<g>
				<path d="M148.552,124.362" style="fill:#D57E58;"></path>
			</g>
			<path d="M175.472,157.148c0,0-25.378,32.766-5.873,67.164h12.378
				C181.977,224.313,156.223,188.32,175.472,157.148z" style="opacity:0.11;fill:#6E6E96;enable-background:new    ;"></path>
		</g>
		<g style="display:inline;">
			<g>
				<path d="M144.936,142.027c0-13.646-11.873-24.707-26.517-24.707c-0.229,0-0.454,0.01-0.685,0.016
					c-4.619-7.234-13.102-12.092-22.8-12.092c-14.644,0-26.518,11.063-26.518,24.706c0,0.178,0.012,0.354,0.015,0.529
					c-8.01,4.252-13.414,12.271-13.414,21.477c0,13.646,11.872,24.707,26.521,24.707c0.832,0,1.65-0.041,2.469-0.104
					c4.864,5.479,12.224,8.979,20.46,8.979c13.537,0,24.695-9.451,26.309-21.647C139.196,159.746,144.936,151.514,144.936,142.027z" style="fill:#D7F7E4;"></path>
				<path d="M104.468,187.039c-8.107,0-15.746-3.247-21.08-8.934c-0.66,0.038-1.27,0.058-1.849,0.058
					c-15.451,0-28.021-11.757-28.021-26.207c0-9.118,5.111-17.604,13.402-22.355c0.2-14.29,12.69-25.856,28.015-25.856
					c9.511,0,18.47,4.606,23.595,12.076c15.398,0.056,27.906,11.791,27.906,26.207c0,9.51-5.455,18.196-14.289,22.85
					C130.049,177.566,118.298,187.039,104.468,187.039z M84.636,175.007l0.494,0.557c4.782,5.387,11.83,8.476,19.338,8.476
					c12.616,0,23.288-8.746,24.821-20.344l0.105-0.795l0.719-0.354c8.218-4.046,13.322-11.908,13.322-20.519
					c0-12.797-11.223-23.207-25.017-23.207c-0.147,0-0.292,0.005-0.438,0.009l-1.055,0.027l-0.456-0.714
					c-4.49-7.031-12.741-11.399-21.536-11.399c-13.795,0-25.018,10.41-25.018,23.206l0.03,1.423l-0.812,0.432
					c-7.783,4.131-12.617,11.853-12.617,20.151c0,12.797,11.225,23.207,25.021,23.207c0.721,0,1.469-0.031,2.354-0.1L84.636,175.007
					z" style="fill:#CCCCDE;"></path>
			</g>
			<path d="M117.973,116.432c-0.228,0-0.452,0.009-0.679,0.015
				c-3.707-5.805-9.896-10.072-17.199-11.537c5.78,1.45,10.648,4.966,13.641,9.647c0.194-0.006,2.854,4.586,3.053,4.586
				c12.562,0,18.414,6.771,18.414,18.479c0,8.144-3.055,13.326-10.271,16.881c-1.384,10.478-10.961,18.584-22.576,18.584
				c-7.064,0-13.384-3.004-17.559-7.715c-0.698,0.063-1.404,0.101-2.118,0.101c-12.568,0-22.438-5.957-22.438-17.664
				c0-7.89,3.527-11.771,9.948-16.451c-0.171-1.021-0.884-9.938,1.496-12.316c5.655-5.657,8.218-10.515,13.277-13.023
				c-9.935,3.566-16.979,12.542-16.979,23.054c0,0.176,0.015,0.352,0.02,0.523c-8.016,4.25-13.415,12.271-13.415,21.479
				c0,13.645,11.873,24.707,26.518,24.707c0.834,0,1.655-0.041,2.47-0.109c4.863,5.488,12.228,8.988,20.462,8.988
				c13.534,0,24.691-9.451,26.312-21.656c8.418-4.141,14.158-12.371,14.158-21.854C144.491,127.494,132.618,116.432,117.973,116.432
				z" style="opacity:0.1;fill:#6E6E96;enable-background:new    ;"></path>
			<g>
				<path d="M80.232,155.391c0,0,13.731,2.688,13.731,16.129c0,0,3.697,22.821-10.595,38.977h33
					c-0.328-0.455-28.824-38.52,2.89-61.147C99.918,160.398,80.232,155.391,80.232,155.391z" style="fill:#EDE3DA;"></path>
				<path d="M116.368,211.997h-36.33l2.206-2.494c13.636-15.413,10.273-37.522,10.237-37.743l-0.019-0.239
					c0-10.928-10.095-14.05-12.18-14.577c-0.277-0.062-0.422-0.098-0.422-0.098l0.658-2.926c0,0,0.161,0.03,0.45,0.103
					c1.106,0.241,5.026,1.001,10.458,1.001c6.786,0,16.994-1.21,27.086-6.977l1.615,2.523c-7.892,5.631-12.576,12.752-13.923,21.164
					c-2.861,17.865,9.887,35.854,11.351,37.846l1.753,2.388L116.368,211.997z M86.53,208.997h26.991
					c-3.932-6.047-12.823-21.844-10.278-37.737c0.989-6.177,3.596-11.703,7.778-16.517c-7.477,2.622-14.465,3.28-19.594,3.28
					c-0.833,0-1.631-0.017-2.392-0.046c3.334,2.627,6.39,6.832,6.426,13.425C95.756,173.339,98.41,193.244,86.53,208.997z" style="fill:#CCCCDE;"></path>
			</g>
			<g>
				<path d="M88.928,128.438" style="fill:#D57E58;"></path>
			</g>
			<path d="M111.028,155.355c0,0-20.835,26.896-4.816,55.141h10.162
				C116.369,210.496,95.225,180.945,111.028,155.355z" style="opacity:0.11;fill:#6E6E96;enable-background:new    ;"></path>
		</g>
		<g style="display:inline;">
			<g>
				<path d="M252.159,166.164c0-12.344-10.74-22.35-23.988-22.35c-0.202,0-0.406,0.008-0.61,0.014
					c-4.187-6.549-11.854-10.938-20.625-10.938c-13.248,0-23.98,10.008-23.98,22.35c0,0.162,0.012,0.318,0.014,0.479
					c-7.244,3.851-12.135,11.104-12.135,19.433c0,12.348,10.731,22.354,23.98,22.354c0.753,0,1.497-0.039,2.229-0.104
					c4.396,4.969,11.062,8.135,18.512,8.135c12.245,0,22.339-8.553,23.799-19.592C246.965,182.191,252.159,174.746,252.159,166.164z" style="fill:#D7F7E4;"></path>
				<path d="M215.556,207.036c-7.359,0-14.285-2.937-19.127-8.084c-0.558,0.035-1.091,0.053-1.614,0.053
					c-14.05,0-25.48-10.7-25.48-23.854c0-8.271,4.622-15.974,12.125-20.311c0.228-12.967,11.569-23.45,25.477-23.45
					c8.62,0,16.746,4.166,21.42,10.925c13.97,0.093,25.304,10.756,25.304,23.849c0,8.631-4.937,16.519-12.936,20.765
					C238.783,198.447,228.112,207.036,215.556,207.036z M197.666,195.841l0.501,0.566c4.289,4.849,10.627,7.629,17.389,7.629
					c11.341,0,20.933-7.862,22.312-18.288l0.105-0.795l0.719-0.354c7.382-3.64,11.968-10.704,11.968-18.435
					c0-11.496-10.088-20.85-22.488-20.85c-0.146,0-0.294,0.005-0.441,0.009l-0.976,0.028l-0.457-0.716
					c-4.04-6.319-11.459-10.245-19.361-10.245c-12.396,0-22.48,9.354-22.48,20.85l0.024,1.374l-0.807,0.429
					c-6.994,3.718-11.339,10.656-11.339,18.108c0,11.499,10.085,20.854,22.48,20.854c0.664,0,1.351-0.032,2.098-0.098
					L197.666,195.841z" style="fill:#CCCCDE;"></path>
			</g>
			<path d="M227.767,143.008c-0.206,0-0.409,0.017-0.614,0.021
				c-3.354-5.25-8.944-9.111-15.558-10.438c5.229,1.313,9.633,4.492,12.339,8.729c0.175-0.004,2.579,4.146,2.757,4.146
				c11.368,0,16.655,6.123,16.655,16.724c0,7.356-2.757,12.055-9.291,15.27c-1.252,9.477-9.915,16.814-20.423,16.814
				c-6.396,0-12.106-2.726-15.884-6.98c-0.631,0.058-1.271,0.086-1.916,0.086c-11.368,0-20.299-5.389-20.299-15.979
				c0-7.14,3.188-10.646,9.002-14.89c-0.156-0.918-0.809-8.981,1.353-11.141c5.116-5.117,7.438-9.514,12.011-11.785
				c-8.979,3.229-15.354,11.351-15.354,20.854c0,0.157,0.013,0.312,0.017,0.479c-7.246,3.851-12.138,11.104-12.138,19.433
				c0,12.344,10.738,22.352,23.988,22.352c0.754,0,1.491-0.035,2.229-0.102c4.401,4.967,11.063,8.133,18.509,8.133
				c12.245,0,22.338-8.558,23.804-19.595c7.61-3.739,12.812-11.188,12.812-19.771C251.754,153.016,241.016,143.008,227.767,143.008z" style="opacity:0.1;fill:#6E6E96;enable-background:new    ;"></path>
			<g>
				<path d="M193.625,178.252c0,0,12.422,2.437,12.422,14.588c0,0,3.345,20.646-9.584,35.265h29.853
					c-0.296-0.41-26.068-34.853,2.615-55.318C211.435,182.783,193.625,178.252,193.625,178.252z" style="fill:#EDE3DA;"></path>
				<path d="M226.316,229.604h-33.182l2.205-2.494c12.316-13.925,9.26-33.831,9.228-34.03l-0.02-0.24
					c0-9.771-9.038-12.571-10.911-13.046c-0.25-0.055-0.381-0.088-0.381-0.088l0.659-2.926c0,0,0.146,0.027,0.408,0.093
					c0.999,0.219,4.533,0.903,9.434,0.903c6.121,0,15.328-1.092,24.431-6.293l1.615,2.523c-7.104,5.069-11.322,11.479-12.535,19.05
					c-2.58,16.11,8.92,32.337,10.239,34.135l1.754,2.388L226.316,229.604z M199.609,226.604h23.868
					c-3.632-5.641-11.453-19.782-9.172-34.022c0.872-5.444,3.125-10.331,6.725-14.609c-6.594,2.235-12.735,2.804-17.273,2.804
					c-0.601,0-1.183-0.01-1.742-0.026c2.908,2.41,5.498,6.182,5.533,11.972C207.82,194.534,210.171,212.371,199.609,226.604z" style="fill:#CCCCDE;"></path>
			</g>
			<g>
				<path d="M201.493,153.871" style="fill:#D57E58;"></path>
			</g>
			<path d="M221.485,178.219c0,0-18.847,24.334-4.356,49.882h9.188
				C226.316,228.1,207.189,201.369,221.485,178.219z" style="opacity:0.11;fill:#6E6E96;enable-background:new    ;"></path>
		</g>
		<g style="display:inline;">
			<g>
				<path d="M87.893,164.313c0-13.111-11.408-23.738-25.479-23.738c-0.225,0-0.438,0.008-0.653,0.014
					c-4.443-6.951-12.589-11.608-21.907-11.608c-14.066,0-25.479,10.629-25.479,23.731c0,0.17,0.011,0.336,0.015,0.511
					c-7.696,4.08-12.89,11.789-12.89,20.635c0,13.104,11.407,23.735,25.479,23.735c0.8,0,1.59-0.041,2.372-0.104
					c4.674,5.271,11.745,8.639,19.659,8.639c13.007,0,23.729-9.082,25.279-20.809C82.378,181.336,87.893,173.427,87.893,164.313z" style="fill:#D7F7E4;"></path>
				<path d="M49.01,207.628c-7.795,0-15.142-3.122-20.278-8.592c-0.622,0.038-1.201,0.057-1.753,0.057
					C12.103,199.093,0,187.772,0,173.857c0-8.776,4.911-16.939,12.878-21.514C13.09,138.6,25.11,127.48,39.854,127.48
					c9.146,0,17.764,4.422,22.703,11.595c14.811,0.072,26.836,11.366,26.836,25.238c0,9.149-5.242,17.507-13.734,21.991
					C73.628,198.516,62.319,207.628,49.01,207.628z M29.977,195.934l0.496,0.56c4.584,5.169,11.341,8.134,18.537,8.134
					c12.094,0,22.323-8.386,23.792-19.505l0.105-0.795l0.719-0.354c7.875-3.878,12.766-11.411,12.766-19.66
					c0-12.263-10.757-22.238-23.979-22.238c-0.166,0-0.325,0.005-0.483,0.01l-0.977,0.026l-0.457-0.715
					c-4.304-6.733-12.214-10.916-20.644-10.916c-13.222,0-23.979,9.973-23.979,22.231l0.035,1.402l-0.818,0.434
					C7.634,158.502,3,165.901,3,173.857c0,12.261,10.757,22.235,23.979,22.235c0.684,0,1.421-0.032,2.252-0.099L29.977,195.934z" style="fill:#CCCCDE;"></path>
			</g>
			<path d="M61.986,139.719c-0.219,0-0.435,0.011-0.647,0.017
				c-3.563-5.578-9.506-9.678-16.525-11.086c5.555,1.393,10.231,4.771,13.106,9.27c0.186-0.004,2.734,4.406,2.928,4.406
				c12.076,0,17.692,6.506,17.692,17.758c0,7.82-2.934,12.81-9.87,16.226c-1.33,10.062-10.531,17.854-21.693,17.854
				c-6.792,0-12.856-2.885-16.871-7.412c-0.67,0.062-1.348,0.092-2.035,0.092c-12.071,0-21.561-5.723-21.561-16.975
				c0-7.574,3.391-11.307,9.561-15.807c-0.165-0.979-0.85-9.554,1.438-11.836c5.435-5.438,7.896-10.104,12.758-12.521
				c-9.541,3.434-16.312,12.051-16.312,22.146c0,0.17,0.011,0.338,0.015,0.508c-7.696,4.084-12.89,11.793-12.89,20.639
				c0,13.107,11.403,23.736,25.479,23.736c0.801,0,1.591-0.039,2.373-0.105c4.674,5.273,11.745,8.644,19.659,8.644
				c13.006,0,23.728-9.08,25.273-20.813c8.094-3.979,13.604-11.891,13.604-21.002C87.466,150.345,76.058,139.719,61.986,139.719z" style="opacity:0.1;fill:#6E6E96;enable-background:new    ;"></path>
			<g>
				<path d="M25.723,177.152c0,0,13.193,2.584,13.193,15.496c0,0,3.553,21.932-10.184,37.451H60.44
					c-0.312-0.438-27.689-37.021,2.777-58.765C44.638,181.963,25.723,177.152,25.723,177.152z" style="fill:#EDE3DA;"></path>
				<path d="M60.44,231.599H25.402l2.208-2.494c13.086-14.785,9.86-36.006,9.826-36.219l-0.019-0.238
					c0-10.454-9.661-13.443-11.659-13.948c-0.266-0.059-0.404-0.094-0.404-0.094l0.658-2.926c0,0,0.154,0.029,0.432,0.099
					c1.061,0.231,4.817,0.959,10.025,0.959c6.515,0,16.315-1.163,26.004-6.705l1.616,2.522c-7.56,5.396-12.05,12.216-13.348,20.271
					c-2.755,17.104,9.479,34.432,10.883,36.351l1.745,2.386L60.44,231.599z M31.889,228.599h25.712
					c-3.807-5.892-12.269-21.059-9.822-36.249c0.944-5.861,3.401-11.114,7.333-15.698c-7.115,2.464-13.756,3.086-18.643,3.086
					c-0.732,0-1.437-0.014-2.11-0.037c3.159,2.539,6.022,6.566,6.058,12.829C40.701,194.417,43.23,213.474,31.889,228.599z" style="fill:#CCCCDE;"></path>
			</g>
			<g>
				<path d="M34.078,151.254" style="fill:#D57E58;"></path>
			</g>
			<path d="M55.313,177.117c0,0-20.02,25.848-4.633,52.982h9.764
				C60.444,230.1,40.129,201.707,55.313,177.117z" style="opacity:0.11;fill:#6E6E96;enable-background:new    ;"></path>
		</g>
	</g>
	<g style="display:none;" id="Layer_3_2_">
		<g style="display:inline;">
			<g>
				<path d="M84.635,140.439c0-11.564-10.059-20.938-22.467-20.938c-0.194,0-0.385,0.014-0.576,0.019
					c-3.917-6.139-11.102-10.245-19.318-10.245c-12.404,0-22.469,9.372-22.469,20.935c0,0.15,0.009,0.297,0.012,0.447
					c-6.78,3.602-11.36,10.397-11.36,18.197c0,11.562,10.059,20.934,22.468,20.934c0.705,0,1.403-0.033,2.092-0.094
					c4.122,4.646,10.358,7.617,17.335,7.617c11.471,0,20.925-8.015,22.293-18.354C79.772,155.451,84.635,148.477,84.635,140.439z" style="fill:#D7F7E4;"></path>
				<path d="M50.351,178.81c-6.89,0-13.388-2.749-17.95-7.568c-0.499,0.03-0.993,0.045-1.477,0.045
					c-13.216,0-23.968-10.063-23.968-22.434c0-7.767,4.327-14.996,11.353-19.075c0.247-12.172,10.902-22.004,23.964-22.004
					c8.092,0,15.715,3.898,20.109,10.228c13.117,0.108,23.752,10.132,23.752,22.438c0,8.109-4.625,15.513-12.124,19.502
					C72.165,170.754,62.14,178.81,50.351,178.81z M33.636,168.133l0.501,0.565c4.011,4.52,9.92,7.112,16.213,7.112
					c10.575,0,19.52-7.33,20.806-17.051l0.105-0.796l0.72-0.354c6.88-3.383,11.153-9.963,11.153-17.171
					c0-10.719-9.406-19.438-20.967-19.438c-0.097,0-0.192,0.004-0.288,0.009l-1.097,0.031l-0.456-0.714
					c-3.759-5.892-10.677-9.552-18.054-9.552c-11.562,0-20.969,8.718-20.969,19.435l0.029,1.34l-0.814,0.433
					c-6.516,3.461-10.564,9.926-10.564,16.872c0,10.716,9.406,19.434,20.968,19.434c0.637,0,1.296-0.029,1.96-0.088L33.636,168.133z" style="fill:#CCCCDE;"></path>
			</g>
			<path d="M61.789,118.75c-0.193,0-0.389,0.013-0.575,0.019
				c-3.141-4.918-8.383-8.534-14.573-9.775c4.898,1.229,9.023,4.208,11.562,8.175c0.161-0.004,2.416,3.89,2.583,3.89
				c10.646,0,15.601,5.734,15.601,15.655c0,6.896-2.583,11.291-8.704,14.306c-1.173,8.875-9.287,15.747-19.129,15.747
				c-5.99,0-11.34-2.546-14.877-6.532c-0.591,0.051-1.189,0.078-1.794,0.078c-10.649,0-19.013-5.051-19.013-14.972
				c0-6.682,2.985-9.973,8.432-13.938c-0.146-0.857-0.75-8.421,1.267-10.438c4.792-4.793,6.964-8.904,11.25-11.038
				c-8.414,3.025-14.385,10.628-14.385,19.534c0,0.148,0.009,0.299,0.012,0.447C12.657,133.51,8.08,140.302,8.08,148.102
				c0,11.562,10.059,20.936,22.468,20.936c0.707,0,1.401-0.035,2.093-0.096c4.121,4.646,10.356,7.617,17.336,7.617
				c11.469,0,20.924-8.017,22.291-18.354c7.133-3.506,11.997-10.479,11.997-18.52C84.258,128.123,74.199,118.75,61.789,118.75z" style="opacity:0.1;fill:#6E6E96;enable-background:new    ;"></path>
			<g>
				<path d="M29.811,151.761c0,0,11.635,2.273,11.635,13.658c0,0,3.137,19.347-8.976,33.027h27.96
					c-0.277-0.387-24.422-32.644,2.449-51.813C46.491,156.004,29.811,151.761,29.811,151.761z" style="fill:#EDE3DA;"></path>
				<path d="M60.43,199.947H29.138l2.208-2.494c11.508-12.998,8.648-31.606,8.618-31.793l-0.02-0.24
					c0-9.075-8.396-11.678-10.14-12.12c-0.239-0.053-0.364-0.084-0.364-0.084l0.657-2.927c0,0,0.14,0.027,0.393,0.09
					c0.935,0.204,4.231,0.841,8.798,0.841c5.724,0,14.334-1.021,22.845-5.888l1.616,2.522c-6.631,4.73-10.568,10.709-11.702,17.769
					c-2.415,15.028,8.337,30.227,9.571,31.909l1.75,2.387L60.43,199.947z M35.606,196.947H57.6
					c-3.447-5.394-10.64-18.566-8.514-31.8c0.803-5.001,2.847-9.501,6.1-13.454c-6.069,2.011-11.71,2.526-15.897,2.526
					c-0.462,0-0.913-0.006-1.349-0.018c2.653,2.276,4.971,5.784,5.005,11.1C43.206,167.039,45.38,183.637,35.606,196.947z" style="fill:#CCCCDE;"></path>
			</g>
			<g>
				<path d="M37.178,128.922" style="fill:#D57E58;"></path>
			</g>
			<path d="M55.905,151.73c0,0-17.649,22.793-4.085,46.721h8.611
				C60.43,198.451,42.515,173.414,55.905,151.73z" style="opacity:0.11;fill:#6E6E96;enable-background:new    ;"></path>
		</g>
		<g style="display:inline;">
			<g>
				<path d="M254.475,139.156c0-10.828-9.42-19.604-21.04-19.604c-0.183,0-0.355,0.009-0.539,0.014
					c-3.669-5.744-10.396-9.596-18.091-9.596c-11.62,0-21.041,8.773-21.041,19.604c0,0.141,0.009,0.279,0.012,0.418
					c-6.354,3.375-10.644,9.74-10.644,17.043c0,10.826,9.421,19.605,21.04,19.605c0.66,0,1.312-0.033,1.96-0.095
					c3.858,4.355,9.698,7.14,16.233,7.14c10.734,0,19.596-7.5,20.875-17.188C249.92,153.213,254.475,146.684,254.475,139.156z" style="fill:#D7F7E4;"></path>
				<path d="M222.365,175.185c-6.464,0-12.56-2.574-16.845-7.087c-0.455,0.027-0.906,0.042-1.349,0.042
					c-12.429,0-22.54-9.468-22.54-21.105c0-7.289,4.053-14.077,10.637-17.92c0.262-11.426,10.271-20.646,22.536-20.646
					c7.589,0,14.744,3.651,18.884,9.583c12.312,0.128,22.286,9.545,22.286,21.103c0,7.613-4.335,14.567-11.367,18.325
					C242.852,167.629,233.437,175.185,222.365,175.185z M206.749,164.98l0.506,0.57c3.734,4.217,9.242,6.635,15.11,6.635
					c9.857,0,18.192-6.829,19.388-15.885l0.105-0.796l0.72-0.354c6.413-3.153,10.396-9.282,10.396-15.995
					c0-9.982-8.766-18.104-19.54-18.104c-0.107,0-0.21,0.004-0.314,0.007l-1.032,0.028l-0.456-0.714
					c-3.508-5.492-9.956-8.903-16.827-8.903c-10.775,0-19.541,8.122-19.541,18.104l0.031,1.31l-0.815,0.433
					c-6.074,3.227-9.848,9.25-9.848,15.719c0,9.983,8.766,18.105,19.54,18.105c0.592,0,1.203-0.029,1.818-0.088L206.749,164.98z" style="fill:#CCCCDE;"></path>
			</g>
			<path d="M233.081,118.845c-0.188,0-0.358,0.009-0.539,0.013
				c-2.94-4.606-7.854-7.992-13.646-9.154c4.586,1.15,8.449,3.94,10.822,7.655c0.154-0.004,2.263,3.639,2.419,3.639
				c9.971,0,14.608,5.374,14.608,14.664c0,6.459-2.42,10.574-8.148,13.396c-1.1,8.311-8.698,14.737-17.914,14.737
				c-5.604,0-10.619-2.381-13.934-6.112c-0.561,0.047-1.112,0.067-1.686,0.067c-9.975,0-17.806-4.727-17.806-14.016
				c0-6.256,2.8-9.338,7.896-13.056c-0.141-0.809-0.699-7.889,1.188-9.771c4.486-4.488,6.521-8.343,10.535-10.337
				c-7.879,2.833-13.471,9.952-13.471,18.292c0,0.139,0.006,0.275,0.012,0.418c-6.355,3.373-10.646,9.736-10.646,17.041
				c0,10.824,9.42,19.604,21.041,19.604c0.661,0,1.313-0.03,1.959-0.091c3.859,4.354,9.699,7.137,16.234,7.137
				c10.74,0,19.594-7.5,20.875-17.188c6.68-3.285,11.23-9.813,11.23-17.342C254.122,127.623,244.702,118.845,233.081,118.845z" style="opacity:0.1;fill:#6E6E96;enable-background:new    ;"></path>
			<g>
				<path d="M203.135,149.758c0,0,10.896,2.138,10.896,12.802c0,0,2.938,18.104-8.402,30.928h26.184
					c-0.26-0.359-22.87-30.566,2.294-48.521C218.754,153.732,203.135,149.758,203.135,149.758z" style="fill:#EDE3DA;"></path>
				<path d="M231.813,194.987H202.3l2.205-2.494c10.745-12.149,8.074-29.52,8.046-29.693l-0.02-0.24
					c0-8.436-7.806-10.857-9.431-11.27c-0.221-0.049-0.336-0.078-0.336-0.078l0.659-2.926c0,0,0.13,0.024,0.364,0.083
					c0.876,0.191,3.958,0.787,8.235,0.787c5.346,0,13.388-0.953,21.339-5.493l1.615,2.523c-6.193,4.419-9.868,10.003-10.923,16.596
					c-2.249,14.062,7.798,28.227,8.951,29.796l1.755,2.388L231.813,194.987z M208.751,191.987h20.234
					c-3.271-5.143-9.863-17.358-7.893-29.679c0.736-4.604,2.591-8.759,5.536-12.42c-5.577,1.802-10.75,2.268-14.605,2.268
					c-0.347,0-0.686-0.003-1.017-0.01c2.418,2.149,4.491,5.414,4.524,10.295C215.781,164.106,217.784,179.529,208.751,191.987z" style="fill:#CCCCDE;"></path>
			</g>
			<g>
				<path d="M210.036,128.373" style="fill:#D57E58;"></path>
			</g>
			<path d="M227.571,149.73c0,0-16.526,21.344-3.819,43.752h8.062
				C231.808,193.482,215.032,170.035,227.571,149.73z" style="opacity:0.11;fill:#6E6E96;enable-background:new    ;"></path>
		</g>
		<g style="display:inline;">
			<g>
				<path d="M217.773,140.916c0-16.621-14.461-30.094-32.299-30.094c-0.278,0-0.554,0.012-0.828,0.019
					c-5.632-8.812-15.959-14.729-27.771-14.729c-17.838,0-32.301,13.475-32.301,30.096c0,0.215,0.014,0.433,0.018,0.646
					c-9.755,5.18-16.339,14.941-16.339,26.156c0,16.617,14.462,30.099,32.3,30.099c1.014,0,2.018-0.051,3.008-0.14
					c5.926,6.688,14.894,10.947,24.921,10.947c16.489,0,30.081-11.514,32.049-26.379
					C210.782,162.498,217.773,152.469,217.773,140.916z" style="fill:#D7F7E4;"></path>
				<path d="M168.482,195.417c-9.842,0-19.104-3.961-25.537-10.894c-0.817,0.057-1.619,0.086-2.392,0.086
					c-18.637,0-33.8-14.175-33.8-31.599c0-11.045,6.229-21.323,16.322-27.035c0.134-17.315,15.245-31.363,33.8-31.363
					c11.533,0,22.396,5.615,28.566,14.71c18.652-0.032,33.831,14.163,33.831,31.594c0,11.518-6.634,22.026-17.37,27.609
					C199.444,183.911,185.226,195.417,168.482,195.417z M144.181,181.408l0.503,0.566c5.879,6.637,14.553,10.442,23.798,10.442
					c15.53,0,28.67-10.78,30.562-25.076l0.105-0.795l0.72-0.354c10.119-4.975,16.404-14.66,16.404-25.276
					c0-15.767-13.816-28.594-30.799-28.594c-0.182,0-0.362,0.006-0.543,0.011l-1.094,0.028l-0.455-0.713
					c-5.533-8.658-15.69-14.036-26.507-14.036c-16.983,0-30.801,12.828-30.801,28.596c0,0.107,0.004,0.216,0.008,0.323l0.026,1.217
					l-0.813,0.432c-9.587,5.09-15.542,14.604-15.542,24.831c0,15.77,13.817,28.599,30.8,28.599c0.919,0,1.886-0.045,2.874-0.134
					L144.181,181.408z" style="fill:#CCCCDE;"></path>
			</g>
			<path d="M184.931,109.738c-0.276,0-0.552,0.012-0.827,0.019
				c-4.516-7.066-12.051-12.269-20.949-14.052c7.041,1.771,12.976,6.049,16.614,11.751c0.237-0.006,3.479,5.586,3.713,5.586
				c15.312,0,22.434,8.248,22.434,22.516c0,9.909-3.72,16.229-12.518,20.562c-1.687,12.754-13.353,22.635-27.5,22.635
				c-8.605,0-16.302-3.651-21.387-9.395c-0.851,0.069-1.71,0.113-2.58,0.113c-15.31,0-27.332-7.259-27.332-21.521
				c0-9.604,4.298-14.336,12.12-20.039c-0.209-1.229-1.077-12.104,1.82-15.002c6.89-6.89,10.011-12.808,16.174-15.868
				c-12.096,4.354-20.679,15.277-20.679,28.08c0,0.215,0.011,0.433,0.017,0.646c-9.756,5.177-16.34,14.942-16.34,26.155
				c0,16.617,14.461,30.099,32.3,30.099c1.017,0,2.017-0.049,3.008-0.135c5.925,6.688,14.895,10.942,24.922,10.942
				c16.487,0,30.078-11.514,32.046-26.379c10.259-5.043,17.244-15.063,17.244-26.623
				C217.231,123.211,202.77,109.738,184.931,109.738z" style="opacity:0.1;fill:#6E6E96;enable-background:new    ;"></path>
			<g>
				<path d="M138.959,157.193c0,0,16.727,3.271,16.727,19.643c0,0,4.504,27.81-12.899,47.479h40.19
					c-0.396-0.556-35.104-46.922,3.521-74.484C162.939,163.293,138.959,157.193,138.959,157.193z" style="fill:#EDE3DA;"></path>
				<path d="M182.977,225.815h-43.521l2.207-2.494c16.738-18.919,12.586-45.975,12.542-46.245l-0.02-0.24
					c0-13.558-12.515-17.421-15.085-18.07c-0.336-0.073-0.512-0.118-0.512-0.118l0.658-2.926c0,0,0.192,0.037,0.54,0.123
					c1.349,0.295,6.155,1.228,12.809,1.228c8.306,0,20.801-1.482,33.158-8.544l1.615,2.523
					c-9.673,6.903-15.421,15.636-17.084,25.956c-3.519,21.832,12.078,43.928,13.868,46.375l1.744,2.386L182.977,225.815z
					 M145.976,222.815h34.144c-4.57-6.934-15.967-26.611-12.796-46.285c1.267-7.858,4.704-14.849,10.252-20.877
					c-9.523,3.547-18.481,4.419-24.979,4.419c-1.403,0-2.725-0.039-3.954-0.104c4.313,3.1,8.505,8.287,8.544,16.75
					C157.523,178.925,160.876,203.59,145.976,222.815z" style="fill:#CCCCDE;"></path>
			</g>
			<g>
				<path d="M149.552,124.362" style="fill:#D57E58;"></path>
			</g>
			<path d="M176.472,157.148c0,0-25.378,32.766-5.873,67.164h12.378
				C182.977,224.313,157.223,188.32,176.472,157.148z" style="opacity:0.11;fill:#6E6E96;enable-background:new    ;"></path>
		</g>
		<g style="display:inline;">
			<g>
				<path d="M145.936,142.027c0-13.646-11.873-24.707-26.517-24.707c-0.229,0-0.454,0.01-0.685,0.016
					c-4.619-7.234-13.102-12.092-22.8-12.092c-14.644,0-26.518,11.063-26.518,24.706c0,0.178,0.012,0.354,0.015,0.529
					c-8.01,4.252-13.414,12.271-13.414,21.477c0,13.646,11.872,24.707,26.521,24.707c0.832,0,1.65-0.041,2.469-0.104
					c4.864,5.481,12.224,8.981,20.46,8.981c13.537,0,24.695-9.451,26.309-21.649C140.196,159.746,145.936,151.514,145.936,142.027z" style="fill:#D7F7E4;"></path>
				<path d="M105.468,187.041c-8.108,0-15.747-3.248-21.08-8.936c-0.66,0.038-1.27,0.058-1.849,0.058
					c-15.451,0-28.021-11.757-28.021-26.207c0-9.118,5.111-17.604,13.402-22.355c0.2-14.29,12.69-25.856,28.015-25.856
					c9.511,0,18.47,4.606,23.595,12.076c15.398,0.056,27.906,11.791,27.906,26.207c0,9.51-5.455,18.196-14.289,22.85
					C131.049,177.568,119.299,187.041,105.468,187.041z M85.636,175.007l0.494,0.557c4.781,5.388,11.829,8.478,19.338,8.478
					c12.617,0,23.287-8.747,24.821-20.346l0.105-0.795l0.719-0.354c8.218-4.046,13.322-11.908,13.322-20.519
					c0-12.797-11.223-23.207-25.017-23.207c-0.147,0-0.292,0.005-0.438,0.009l-1.055,0.027l-0.456-0.714
					c-4.49-7.031-12.741-11.399-21.536-11.399c-13.795,0-25.018,10.41-25.018,23.206l0.03,1.423l-0.812,0.432
					c-7.783,4.131-12.617,11.853-12.617,20.151c0,12.797,11.225,23.207,25.021,23.207c0.721,0,1.469-0.031,2.354-0.1L85.636,175.007
					z" style="fill:#CCCCDE;"></path>
			</g>
			<path d="M118.973,116.432c-0.228,0-0.452,0.009-0.679,0.015
				c-3.707-5.805-9.896-10.072-17.199-11.537c5.78,1.45,10.648,4.966,13.641,9.647c0.194-0.006,2.854,4.586,3.053,4.586
				c12.562,0,18.414,6.771,18.414,18.479c0,8.144-3.055,13.326-10.271,16.881c-1.384,10.478-10.961,18.584-22.576,18.584
				c-7.064,0-13.384-3.004-17.559-7.715c-0.698,0.063-1.404,0.101-2.118,0.101c-12.568,0-22.438-5.957-22.438-17.664
				c0-7.89,3.527-11.771,9.948-16.451c-0.171-1.021-0.884-9.938,1.496-12.316c5.655-5.657,8.218-10.515,13.277-13.023
				c-9.935,3.566-16.979,12.542-16.979,23.054c0,0.176,0.015,0.352,0.02,0.523c-8.016,4.25-13.415,12.271-13.415,21.479
				c0,13.645,11.873,24.707,26.518,24.707c0.834,0,1.655-0.041,2.47-0.109c4.863,5.488,12.228,8.988,20.462,8.988
				c13.534,0,24.691-9.451,26.312-21.656c8.418-4.141,14.158-12.371,14.158-21.854C145.491,127.494,133.618,116.432,118.973,116.432
				z" style="opacity:0.1;fill:#6E6E96;enable-background:new    ;"></path>
			<g>
				<path d="M81.232,155.391c0,0,13.731,2.688,13.731,16.129c0,0,3.697,22.821-10.595,38.977h33
					c-0.328-0.455-28.824-38.52,2.89-61.147C100.918,160.398,81.232,155.391,81.232,155.391z" style="fill:#EDE3DA;"></path>
				<path d="M117.368,211.997h-36.33l2.206-2.494c13.636-15.413,10.273-37.522,10.237-37.743l-0.019-0.239
					c0-10.928-10.095-14.05-12.18-14.577c-0.277-0.062-0.422-0.098-0.422-0.098l0.658-2.926c0,0,0.161,0.03,0.45,0.103
					c1.106,0.241,5.026,1.001,10.458,1.001c6.786,0,16.994-1.21,27.086-6.977l1.615,2.523c-7.892,5.631-12.576,12.752-13.923,21.164
					c-2.861,17.865,9.887,35.854,11.351,37.846l1.753,2.388L117.368,211.997z M87.53,208.997h26.991
					c-3.932-6.047-12.823-21.844-10.278-37.737c0.989-6.177,3.596-11.703,7.778-16.517c-7.477,2.622-14.465,3.28-19.594,3.28
					c-0.833,0-1.631-0.017-2.392-0.046c3.334,2.627,6.39,6.832,6.426,13.425C96.756,173.339,99.41,193.244,87.53,208.997z" style="fill:#CCCCDE;"></path>
			</g>
			<g>
				<path d="M89.928,128.438" style="fill:#D57E58;"></path>
			</g>
			<path d="M112.028,155.355c0,0-20.835,26.896-4.816,55.141h10.162
				C117.369,210.496,96.225,180.945,112.028,155.355z" style="opacity:0.11;fill:#6E6E96;enable-background:new    ;"></path>
		</g>
		<g style="display:inline;">
			<g>
				<path d="M253.159,166.164c0-12.344-10.74-22.35-23.988-22.35c-0.203,0-0.407,0.008-0.611,0.014
					c-4.186-6.549-11.854-10.938-20.625-10.938c-13.248,0-23.981,10.008-23.981,22.35c0,0.162,0.012,0.318,0.014,0.479
					c-7.244,3.851-12.135,11.104-12.135,19.433c0,12.346,10.732,22.352,23.981,22.352c0.753,0,1.497-0.039,2.23-0.102
					c4.396,4.967,11.061,8.133,18.511,8.133c12.245,0,22.339-8.551,23.799-19.592C247.965,182.191,253.159,174.746,253.159,166.164z" style="fill:#D7F7E4;"></path>
				<path d="M216.555,207.034c-7.358,0-14.285-2.937-19.127-8.083c-0.562,0.034-1.096,0.052-1.614,0.052
					c-14.051,0-25.481-10.7-25.481-23.852c0-8.271,4.622-15.974,12.125-20.311c0.228-12.967,11.569-23.45,25.478-23.45
					c8.621,0,16.747,4.165,21.42,10.925c13.971,0.092,25.305,10.755,25.305,23.849c0,8.632-4.937,16.519-12.937,20.763
					C239.782,198.445,229.111,207.034,216.555,207.034z M198.668,195.843l0.499,0.564c4.29,4.847,10.627,7.627,17.388,7.627
					c11.341,0,20.934-7.862,22.312-18.288l0.105-0.795l0.719-0.354c7.383-3.638,11.969-10.701,11.969-18.433
					c0-11.496-10.088-20.85-22.488-20.85c-0.147,0-0.295,0.005-0.442,0.01l-0.976,0.027l-0.457-0.716
					c-4.039-6.319-11.458-10.245-19.361-10.245c-12.396,0-22.481,9.354-22.481,20.85l0.024,1.374l-0.807,0.429
					c-6.994,3.718-11.339,10.656-11.339,18.108c0,11.498,10.085,20.852,22.481,20.852c0.656,0,1.344-0.031,2.104-0.096
					L198.668,195.843z" style="fill:#CCCCDE;"></path>
			</g>
			<path d="M228.767,143.008c-0.206,0-0.409,0.017-0.614,0.021
				c-3.354-5.25-8.944-9.111-15.558-10.438c5.229,1.313,9.633,4.492,12.339,8.729c0.175-0.004,2.579,4.146,2.757,4.146
				c11.368,0,16.655,6.123,16.655,16.724c0,7.356-2.757,12.055-9.291,15.27c-1.252,9.477-9.915,16.814-20.423,16.814
				c-6.396,0-12.106-2.726-15.884-6.98c-0.631,0.058-1.271,0.086-1.916,0.086c-11.368,0-20.299-5.389-20.299-15.979
				c0-7.14,3.188-10.646,9.002-14.89c-0.156-0.918-0.808-8.981,1.353-11.141c5.116-5.117,7.438-9.512,12.011-11.785
				c-8.979,3.23-15.354,11.351-15.354,20.855c0,0.157,0.012,0.312,0.016,0.479c-7.246,3.851-12.137,11.104-12.137,19.433
				c0,12.344,10.738,22.35,23.988,22.35c0.754,0,1.496-0.035,2.229-0.1c4.401,4.967,11.063,8.133,18.509,8.133
				c12.245,0,22.339-8.558,23.804-19.592c7.61-3.744,12.811-11.191,12.811-19.771C252.754,153.016,242.016,143.008,228.767,143.008z" style="opacity:0.1;fill:#6E6E96;enable-background:new    ;"></path>
			<g>
				<path d="M194.625,178.252c0,0,12.422,2.437,12.422,14.588c0,0,3.345,20.646-9.584,35.265h29.853
					c-0.296-0.41-26.068-34.853,2.615-55.318C212.435,182.783,194.625,178.252,194.625,178.252z" style="fill:#EDE3DA;"></path>
				<path d="M227.316,229.604h-33.182l2.205-2.494c12.316-13.925,9.26-33.831,9.228-34.03l-0.02-0.24
					c0-9.771-9.038-12.571-10.911-13.046c-0.25-0.055-0.381-0.088-0.381-0.088l0.659-2.926c0,0,0.146,0.027,0.408,0.093
					c0.999,0.219,4.533,0.903,9.434,0.903c6.121,0,15.328-1.092,24.431-6.293l1.615,2.523c-7.104,5.069-11.322,11.479-12.535,19.05
					c-2.58,16.11,8.92,32.337,10.239,34.135l1.754,2.388L227.316,229.604z M200.609,226.604h23.868
					c-3.632-5.641-11.453-19.782-9.172-34.022c0.872-5.444,3.125-10.331,6.725-14.609c-6.594,2.235-12.735,2.804-17.273,2.804
					c-0.601,0-1.183-0.01-1.742-0.026c2.908,2.41,5.498,6.182,5.533,11.972C208.82,194.534,211.171,212.371,200.609,226.604z" style="fill:#CCCCDE;"></path>
			</g>
			<g>
				<path d="M202.493,153.871" style="fill:#D57E58;"></path>
			</g>
			<path d="M222.485,178.219c0,0-18.847,24.334-4.356,49.882h9.188
				C227.316,228.1,208.189,201.369,222.485,178.219z" style="opacity:0.11;fill:#6E6E96;enable-background:new    ;"></path>
		</g>
		<g style="display:inline;">
			<g>
				<path d="M88.893,164.313c0-13.111-11.408-23.738-25.479-23.738c-0.225,0-0.438,0.008-0.653,0.014
					c-4.443-6.951-12.589-11.61-21.907-11.61c-14.066,0-25.479,10.629-25.479,23.733c0,0.17,0.011,0.336,0.015,0.51
					c-7.696,4.081-12.89,11.79-12.89,20.636c0,13.104,11.407,23.735,25.479,23.735c0.8,0,1.59-0.041,2.372-0.104
					c4.674,5.271,11.745,8.639,19.659,8.639c13.007,0,23.729-9.082,25.279-20.809C83.378,181.336,88.893,173.427,88.893,164.313z" style="fill:#D7F7E4;"></path>
				<path d="M50.01,207.628c-7.795,0-15.142-3.122-20.278-8.592c-0.622,0.038-1.201,0.057-1.753,0.057
					C13.103,199.093,1,187.772,1,173.857c0-8.776,4.911-16.939,12.878-21.515c0.211-13.744,12.231-24.864,26.976-24.864
					c9.146,0,17.763,4.423,22.703,11.597c14.811,0.072,26.836,11.366,26.836,25.238c0,9.149-5.242,17.507-13.734,21.991
					C74.628,198.516,63.319,207.628,50.01,207.628z M30.977,195.934l0.496,0.56c4.584,5.169,11.341,8.134,18.537,8.134
					c12.094,0,22.323-8.386,23.792-19.505l0.105-0.795l0.719-0.354c7.875-3.878,12.766-11.411,12.766-19.66
					c0-12.263-10.757-22.238-23.979-22.238c-0.166,0-0.325,0.005-0.483,0.01l-0.977,0.026l-0.457-0.715
					c-4.305-6.734-12.215-10.918-20.644-10.918c-13.222,0-23.979,9.974-23.979,22.233l0.035,1.401l-0.818,0.434
					C8.634,158.502,4,165.901,4,173.857c0,12.261,10.757,22.235,23.979,22.235c0.684,0,1.421-0.032,2.252-0.099L30.977,195.934z" style="fill:#CCCCDE;"></path>
			</g>
			<path d="M62.986,139.719c-0.219,0-0.435,0.011-0.647,0.017
				c-3.563-5.578-9.506-9.678-16.525-11.086c5.555,1.393,10.231,4.771,13.106,9.27c0.186-0.004,2.734,4.406,2.928,4.406
				c12.076,0,17.692,6.506,17.692,17.758c0,7.82-2.934,12.81-9.87,16.226c-1.33,10.062-10.531,17.854-21.693,17.854
				c-6.792,0-12.856-2.885-16.871-7.412c-0.67,0.062-1.348,0.092-2.035,0.092c-12.071,0-21.561-5.723-21.561-16.975
				c0-7.574,3.391-11.307,9.561-15.807c-0.165-0.979-0.85-9.554,1.438-11.836c5.435-5.438,7.896-10.104,12.758-12.521
				c-9.541,3.434-16.312,12.051-16.312,22.148c0,0.17,0.011,0.338,0.015,0.508c-7.696,4.084-12.89,11.791-12.89,20.637
				c0,13.107,11.403,23.736,25.479,23.736c0.801,0,1.591-0.039,2.373-0.104c4.674,5.273,11.745,8.644,19.659,8.644
				c13.006,0,23.728-9.082,25.273-20.813c8.094-3.979,13.604-11.891,13.604-21.002C88.466,150.345,77.058,139.719,62.986,139.719z" style="opacity:0.1;fill:#6E6E96;enable-background:new    ;"></path>
			<g>
				<path d="M26.723,177.152c0,0,13.193,2.584,13.193,15.496c0,0,3.553,21.932-10.184,37.451H61.44
					c-0.312-0.438-27.689-37.021,2.777-58.765C45.638,181.963,26.723,177.152,26.723,177.152z" style="fill:#EDE3DA;"></path>
				<path d="M61.44,231.599H26.402l2.208-2.494c13.086-14.785,9.86-36.006,9.826-36.219l-0.019-0.238
					c0-10.454-9.661-13.443-11.659-13.948c-0.266-0.059-0.404-0.094-0.404-0.094l0.658-2.926c0,0,0.154,0.029,0.432,0.099
					c1.061,0.231,4.817,0.959,10.025,0.959c6.515,0,16.315-1.163,26.004-6.705l1.616,2.522c-7.56,5.396-12.05,12.216-13.348,20.271
					c-2.755,17.104,9.479,34.432,10.883,36.351l1.745,2.386L61.44,231.599z M32.889,228.599h25.712
					c-3.807-5.892-12.269-21.059-9.822-36.249c0.944-5.861,3.401-11.114,7.333-15.698c-7.115,2.464-13.756,3.086-18.643,3.086
					c-0.732,0-1.437-0.014-2.11-0.037c3.159,2.539,6.022,6.566,6.058,12.829C41.701,194.417,44.23,213.474,32.889,228.599z" style="fill:#CCCCDE;"></path>
			</g>
			<g>
				<path d="M35.078,151.254" style="fill:#D57E58;"></path>
			</g>
			<path d="M56.313,177.117c0,0-20.02,25.848-4.633,52.982h9.764
				C61.444,230.1,41.129,201.707,56.313,177.117z" style="opacity:0.11;fill:#6E6E96;enable-background:new    ;"></path>
		</g>
	</g>
	<path d="M214.225,57.646h-14c-0.828,0-1.5-0.671-1.5-1.5s0.672-1.5,1.5-1.5h14c0.828,0,1.5,0.671,1.5,1.5
		S215.053,57.646,214.225,57.646z" style="fill:#FFFFFF;"></path>
	<path d="M228.225,57.646h-4c-0.828,0-1.5-0.671-1.5-1.5s0.672-1.5,1.5-1.5h4c0.828,0,1.5,0.671,1.5,1.5
		S229.053,57.646,228.225,57.646z" style="fill:#FFFFFF;"></path>
	<path d="M238.26,66.646h-18.035c-0.828,0-1.5-0.671-1.5-1.5s0.672-1.5,1.5-1.5h18.035
		c0.828,0,1.5,0.671,1.5,1.5S239.088,66.646,238.26,66.646z" style="fill:#FFFFFF;"></path>
	<path d="M209.225,66.646h-5c-0.828,0-1.5-0.671-1.5-1.5s0.672-1.5,1.5-1.5h5c0.828,0,1.5,0.671,1.5,1.5
		S210.053,66.646,209.225,66.646z" style="fill:#FFFFFF;"></path>
	<path d="M32.225,134.146h-9c-0.829,0-1.5-0.672-1.5-1.5s0.671-1.5,1.5-1.5h9c0.829,0,1.5,0.672,1.5,1.5
		S33.053,134.146,32.225,134.146z" style="fill:#FFFFFF;"></path>
	<path d="M17.725,134.146h-5.5c-0.829,0-1.5-0.672-1.5-1.5s0.671-1.5,1.5-1.5h5.5c0.829,0,1.5,0.672,1.5,1.5
		S18.553,134.146,17.725,134.146z" style="fill:#FFFFFF;"></path>
	<path d="M24.975,126.896h-15.5c-0.829,0-1.5-0.672-1.5-1.5c0-0.829,0.671-1.5,1.5-1.5h15.5
		c0.829,0,1.5,0.671,1.5,1.5C26.475,126.224,25.803,126.896,24.975,126.896z" style="fill:#FFFFFF;"></path>
	<path d="M36.725,126.896h-4.5c-0.829,0-1.5-0.672-1.5-1.5c0-0.829,0.671-1.5,1.5-1.5h4.5
		c0.829,0,1.5,0.671,1.5,1.5C38.225,126.224,37.553,126.896,36.725,126.896z" style="fill:#FFFFFF;"></path>
	<g style="opacity:0.31;">
		<path d="M103.037,202.171c-1.42-5.2,0.845-12.487,13.328-9.505c6.298,1.508,12.416,11.728,8.008,14.951" style="fill:#ADDCFF;"></path>
		<path d="M124.525,205.932c-0.525,0-1.035-0.276-1.31-0.767c-0.405-0.723-0.147-1.637,0.575-2.042
			c0.385-0.216,0.724-0.538,0.593-1.422c-0.4-2.708-4.548-6.946-8.639-7.85c-7.304-1.611-9.919-0.082-10.829,0.973
			c-1.223,1.418-0.684,3.327-0.396,4.082c0.295,0.774-0.092,1.641-0.866,1.937c-0.775,0.298-1.641-0.093-1.937-0.866
			c-1-2.62-0.654-5.278,0.927-7.111c1.645-1.907,5.363-3.792,13.747-1.943c5.012,1.106,10.338,6.132,10.96,10.341
			c0.287,1.938-0.477,3.57-2.094,4.478C125.025,205.871,124.773,205.932,124.525,205.932z" style="fill:#6E6E96;"></path>
		<path d="M117.331,204.665c2.156-0.959,4.478-1.551,6.31-1.718c10.922-1.021,14.688,7.988,12.077,15.428
			c-1.92,5.465-9.163,9.198-14.62,7.076" style="fill:#ADDCFF;"></path>
		<path d="M121.161,211.527c0,0,6.242,5.244,6.437,8.791
			c0,0,12.817-7.906,2.313-14.974c0,0,6.09,2.26,4.743,10.99c-1.35,8.733-8.809,8.025-8.809,8.025s-3.721-6.622-6.082-9.85
			L121.161,211.527z" style="opacity:0.5;fill:#74B7E8;enable-background:new    ;"></path>
		<path d="M124.136,227.292c-1.358,0-2.673-0.232-3.877-0.7c-0.772-0.301-1.154-1.17-0.854-1.942
			c0.3-0.771,1.167-1.155,1.942-0.854c2.081,0.81,4.679,0.63,7.127-0.498c2.642-1.215,4.709-3.338,5.531-5.679
			c1.283-3.657,0.812-7.555-1.232-10.17c-1.97-2.522-5.184-3.653-9.291-3.27c-1.788,0.167-3.97,0.764-5.836,1.598
			c-0.755,0.335-1.643-0.003-1.981-0.759s0.001-1.644,0.758-1.981c2.181-0.974,4.653-1.646,6.781-1.844
			c5.106-0.481,9.341,1.09,11.933,4.409c2.667,3.413,3.317,8.398,1.698,13.011c-1.084,3.092-3.741,5.862-7.106,7.41
			C127.897,226.865,125.977,227.292,124.136,227.292z" style="fill:#6E6E96;"></path>
		<path d="M91.427,221.808c-6.604-2.792-12.402-10.683-7.775-17.062c2.788-3.84,10.191-10.896,17.722-7.146
			c2.065,1.026,3.881,3.97,4.732,7.523" style="fill:#ADDCFF;"></path>
		<path d="M117.461,214.429c4.438,4.214,7.278,9.628,7.234,12.637c-0.127,8.668-12.267,10.856-20.778,8.474
			c-8.509-2.386-14.829-6.393-12.488-14.739c0.796-2.846,6.383-7.229,11.646-9.563" style="fill:#ADDCFF;"></path>
		<path d="M124.666,226.397c0.044-3.01-2.794-8.425-7.234-12.637
			l-14.387-3.198c-5.263,2.34-10.851,6.722-11.648,9.564c-2.339,8.348,3.979,12.356,12.49,14.741
			C112.4,237.258,124.54,235.062,124.666,226.397z M105.747,229.345c-5.941-1.664-9.968-3.935-8.333-9.761
			c0.276-0.984,1.598-1.936,3.306-2.842c2.277,1.897,8.221,5.741,16.768,3.329c1.307,1.396,2.211,2.681,2.193,3.777
			C119.592,229.9,111.688,231.012,105.747,229.345z" style="opacity:0.5;fill:#74B7E8;enable-background:new    ;"></path>
		<path d="M91.367,199.781c0,0-9.37,6.175-2.408,12.844
			c0,0,4.055-4.312,11.71-4.057l0.251,1.941c0,0-7.853,5.215-10.656,8.943C90.265,219.454,73.798,210.222,91.367,199.781z" style="opacity:0.5;fill:#74B7E8;enable-background:new    ;"></path>
		<path d="M91.126,223.048c-0.195,0-0.393-0.038-0.583-0.118c-4.822-2.038-8.729-6.191-9.952-10.58
			c-0.87-3.123-0.335-6.145,1.546-8.739c3.439-4.739,11.439-11.679,19.605-7.611c2.438,1.213,4.554,4.478,5.521,8.519
			c0.193,0.806-0.304,1.615-1.11,1.809c-0.805,0.192-1.615-0.305-1.808-1.109c-0.743-3.104-2.326-5.729-3.94-6.532
			c-7.976-3.969-15.522,6.251-15.84,6.688c-1.344,1.854-1.709,3.931-1.084,6.172c0.972,3.487,4.279,6.952,8.229,8.622
			c0.763,0.322,1.12,1.203,0.798,1.966C92.266,222.704,91.71,223.048,91.126,223.048z" style="fill:#6E6E96;"></path>
		<path d="M91.126,222.043c-0.134,0-0.27-0.018-0.405-0.056c-0.798-0.223-1.264-1.051-1.041-1.849
			c0.998-3.567,7.129-8.155,12.48-10.53c0.757-0.338,1.643,0.005,1.979,0.763c0.336,0.757-0.005,1.644-0.763,1.979
			c-5.404,2.397-10.247,6.59-10.809,8.597C92.385,221.609,91.782,222.043,91.126,222.043z" style="fill:#6E6E96;"></path>
		<path d="M110.41,237.676c-2.577,0-5.087-0.355-7.198-0.946c-0.798-0.223-1.264-1.051-1.04-1.849
			c0.223-0.797,1.048-1.266,1.849-1.04c5.782,1.62,12.557,0.864,16.11-1.791c1.801-1.346,2.73-3.117,2.762-5.264
			c0.013-0.829,0.692-1.524,1.522-1.479c0.828,0.013,1.49,0.693,1.478,1.521c-0.045,3.083-1.417,5.72-3.966,7.624
			C118.832,236.764,114.536,237.676,110.41,237.676z" style="fill:#6E6E96;"></path>
		<path d="M121.8,221.328c-0.5,0-0.988-0.249-1.272-0.704c-1.2-1.915-2.721-3.771-4.4-5.364
			c-0.601-0.571-0.625-1.521-0.054-2.121c0.57-0.602,1.52-0.625,2.121-0.055c1.858,1.766,3.544,3.822,4.875,5.948
			c0.44,0.701,0.228,1.627-0.475,2.067C122.347,221.254,122.072,221.328,121.8,221.328z" style="fill:#6E6E96;"></path>
		<g>
			<path d="M112.978,201.088c4.743,1.155,7.721,5.663,6.65,10.066c-1.072,4.405-5.442,5.626-10.187,4.473
				c-4.741-1.153-8.063-4.247-6.993-8.649C103.519,202.572,108.234,199.936,112.978,201.088z" style="fill:#FFFFFF;"></path>
			<path d="M112.668,217.536c-1.143,0-2.348-0.152-3.581-0.451c-6.103-1.485-9.28-5.591-8.096-10.462
				c1.045-4.301,5.052-7.306,9.745-7.306c0.868,0,1.742,0.105,2.596,0.312c5.54,1.35,9.018,6.679,7.754,11.879
				C120.167,215.283,117.02,217.536,112.668,217.536z M110.736,202.317c-3.304,0-6.112,2.062-6.83,5.015
				c-1.151,4.734,4.217,6.431,5.89,6.838c1.001,0.243,1.967,0.366,2.872,0.366c2.096,0,4.751-0.648,5.503-3.736
				c0.874-3.594-1.615-7.297-5.548-8.255C112.001,202.394,111.366,202.317,110.736,202.317z" style="fill:#6E6E96;"></path>
		</g>
		<path d="M105.861,204.222c0,0-2.139,5.089,3.354,6.604
			c5.496,1.512,9.068-3.421,7.118-6.084c0,0,4.324,3.201,1.158,7.5c-3.164,4.299-13.268,3.63-13.891-2.418
			C102.978,203.778,105.861,204.222,105.861,204.222z" style="opacity:0.15;fill:#6E6E96;enable-background:new    ;"></path>
	</g>
</g>
<g id="Layer_2">
	<g style="opacity:0.31;">
		<path d="M47.663,149.495c0.619-9.414,8.518-20.174,27.465-8.118c9.554,6.083,13.843,26.465,4.715,29.288" style="fill:#FFDD5F;"></path>
		<path d="M81.907,166.99c-0.711,0-1.343-0.508-1.474-1.233c-0.147-0.815,0.394-1.596,1.209-1.742
			c0.956-0.173,2.275-0.663,2.697-2.914c0.965-5.149-3.611-14.962-10.327-19.073c-8.641-5.287-15.608-6.915-19.62-4.581
			c-2.327,1.354-3.651,4.17-3.542,7.533c0.027,0.828-0.623,1.521-1.451,1.548c-0.801,0.033-1.521-0.622-1.547-1.45
			c-0.145-4.484,1.736-8.306,5.032-10.224c3.543-2.061,10.356-2.936,22.694,4.615c7.184,4.397,12.984,15.386,11.71,22.185
			c-0.549,2.93-2.365,4.816-5.113,5.313C82.086,166.982,81.996,166.99,81.907,166.99z" style="fill:#6E6E96;"></path>
		<path d="M69.883,161.771c4.114-0.359,8.289-0.013,11.417,0.752c18.642,4.545,19.734,21.591,11.171,32.403
			c-6.293,7.943-20.396,9.987-28.218,3.367" style="fill:#FFDD5F;"></path>
		<path d="M72.301,175.303c0,0,7.334,12.231,5.635,18.213c0,0,25.701-5.771,12.361-23.444
			c0,0,8.783,7.207,1.575,20.878c-7.208,13.673-19.144,8.25-19.144,8.25s-2.375-13.072-4.443-19.755L72.301,175.303z" style="fill:#FFCA5F;"></path>
		<path d="M75.697,203.161c-4.904,0-9.459-1.522-12.762-4.318c-0.632-0.535-0.711-1.481-0.176-2.113
			c0.535-0.632,1.481-0.714,2.114-0.176c3.217,2.723,7.921,4.003,12.918,3.502c5.357-0.533,10.274-3.021,13.154-6.657
			c4.443-5.613,5.954-12.734,3.943-18.584c-1.95-5.674-6.895-9.627-14.299-11.433c-3.151-0.769-7.237-1.034-10.927-0.713
			c-0.819,0.074-1.553-0.538-1.625-1.363c-0.072-0.825,0.538-1.553,1.364-1.625c4.059-0.354,8.396-0.068,11.899,0.787
			c8.326,2.029,14.159,6.778,16.425,13.371c2.339,6.807,0.642,15.016-4.429,21.422c-3.375,4.26-9.06,7.168-15.209,7.78
			C77.286,203.121,76.487,203.161,75.697,203.161z" style="fill:#6E6E96;"></path>
		<path d="M17.261,175.349c-9.326-8.382-14.417-24.736-3.131-32.646c6.801-4.762,23.068-12.214,33.387-1.719
			c2.831,2.877,4.154,8.774,3.532,15.145" style="fill:#FFDD5F;"></path>
		<path d="M64.526,177.994c4.94,9.501,6.549,20.078,4.761,25.023c-5.15,14.267-26.48,10.968-39.199,2.166
			c-12.716-8.802-20.88-19.031-12.25-31.501c2.941-4.252,14.679-8.317,24.715-9.177" style="fill:#FFDD5F;"></path>
		<path d="M69.621,201.892c1.788-4.95,0.177-15.524-4.762-25.023L42.887,163.38
			c-10.037,0.86-21.775,4.929-24.716,9.178c-8.63,12.472-0.468,22.7,12.25,31.504C43.138,212.86,64.468,216.157,69.621,201.892z
			 M36.645,195.984c-8.875-6.144-14.234-12.19-8.212-20.896c1.022-1.471,3.743-2.286,7.086-2.812
			c2.687,4.435,10.324,14.183,25.835,15.063c1.364,3.056,2.122,5.693,1.474,7.499C59.229,204.794,45.522,202.128,36.645,195.984z" style="fill:#FFCA5F;"></path>
		<path d="M29.725,138.885c0,0-19.019,4.871-11.307,19.871c0,0,9.167-4.813,21.683-0.031l-0.692,3.354
			c0,0-15.962,4.146-22.725,8.715C16.684,170.795-5.287,146.135,29.725,138.885z" style="fill:#FFCA5F;"></path>
		<path d="M16.913,176.252c-0.357,0-0.715-0.127-1.002-0.384c-6.469-5.812-10.509-14.764-10.054-22.274
			c0.321-5.305,2.764-9.701,7.064-12.714c8.099-5.675,24.652-12.388,35.316-1.544c3.113,3.164,4.629,9.427,3.957,16.343
			c-0.081,0.824-0.819,1.425-1.638,1.348c-0.825-0.08-1.428-0.813-1.348-1.639c0.58-5.964-0.641-11.438-3.109-13.948
			c-11.594-11.791-30.649,1.334-31.456,1.897c-3.575,2.505-5.523,6.017-5.792,10.438c-0.402,6.646,3.241,14.627,9.065,19.86
			c0.616,0.554,0.667,1.503,0.113,2.119C17.733,176.084,17.323,176.252,16.913,176.252z" style="fill:#6E6E96;"></path>
		<path d="M17.486,174.586c-0.294,0-0.592-0.086-0.852-0.267c-0.681-0.472-0.852-1.405-0.38-2.087
			c3.453-4.991,16.092-8.982,25.821-9.818c0.817-0.081,1.552,0.54,1.623,1.366c0.071,0.825-0.541,1.552-1.366,1.622
			c-10.027,0.862-21.061,4.851-23.611,8.537C18.43,174.36,17.962,174.586,17.486,174.586z" style="fill:#6E6E96;"></path>
		<path d="M52.722,213.642c-3.298,0.001-6.697-0.524-9.898-1.396c-0.799-0.218-1.271-1.042-1.053-1.841
			c0.218-0.8,1.042-1.27,1.841-1.054c9.344,2.544,20.53,1.923,23.911-7.444c1.553-4.295,0.228-14.38-4.679-23.822
			c-0.382-0.734-0.096-1.641,0.639-2.022c0.736-0.384,1.641-0.097,2.023,0.64c4.814,9.265,6.895,20.539,4.838,26.225
			C67.497,210.814,60.38,213.642,52.722,213.642z" style="fill:#6E6E96;"></path>
		<g>
			<path d="M64.72,153.372c7.187,4.617,9.542,13.77,5.256,20.44c-4.282,6.677-12.205,6.2-19.394,1.588
				c-7.189-4.612-10.917-11.62-6.636-18.292C48.233,150.428,57.533,148.76,64.72,153.372z" style="fill:#FFFFFF;"></path>
			<path d="M60.859,180.35c-3.493,0-7.327-1.275-11.086-3.688c-3.979-2.553-6.813-5.688-8.197-9.067
				c-1.565-3.821-1.182-7.728,1.109-11.298c2.826-4.403,7.788-7.032,13.274-7.032c3.363,0,6.672,0.983,9.572,2.844
				c3.796,2.439,6.485,6.11,7.573,10.339c1.098,4.271,0.436,8.594-1.865,12.175C68.835,178.369,65.246,180.35,60.859,180.35z
				 M55.958,152.265c-4.459,0-8.478,2.113-10.75,5.653c-1.764,2.749-2.053,5.622-0.858,8.539c1.15,2.807,3.584,5.462,7.042,7.68
				c3.275,2.102,6.549,3.213,9.466,3.213c3.362,0,6.004-1.463,7.854-4.348c1.845-2.872,2.372-6.354,1.484-9.808
				c-0.898-3.492-3.132-6.533-6.289-8.562C61.495,153.085,58.745,152.265,55.958,152.265z" style="fill:#6E6E96;"></path>
		</g>
		<path d="M51.163,154.499c0,0-6.439,7.194,1.781,12.834
			c8.222,5.635,16.945-0.485,15.239-6.003c0,0,5.33,7.758-2.355,13.068c-7.689,5.304-24.014-1.567-21.595-11.923
			C46.648,152.12,51.163,154.499,51.163,154.499z" style="opacity:0.15;fill:#6E6E96;enable-background:new    ;"></path>
	</g>
	<g>
		<path d="M56.38,145.812c0,0,17.5,31.529,55.097,16.983
			l-9.928-14.602L56.38,145.812z" style="opacity:0.2;fill:#6E6E96;enable-background:new    ;"></path>
		<g>
			<path d="M202.159,116.832c0,0,8.856,7.353,8.856,13.443c0,0-6.805-4.691-8.328,0L202.159,116.832z" style="fill:#C2944D;"></path>
			<path d="M212.516,133.122l-2.35-1.61c-0.739-0.507-3.013-1.821-4.643-1.821
				c-0.779,0-1.161,0.284-1.409,1.048l-2.926-0.404l-0.66-16.806l2.589,2.149c0.384,0.319,9.398,7.88,9.398,14.598V133.122z
				 M205.524,126.69c1.128,0,2.3,0.329,3.328,0.743c-1.055-2.484-3.182-5.074-5.05-7.006l0.254,6.471
				C204.506,126.76,204.996,126.69,205.524,126.69z" style="fill:#6E6E96;"></path>
		</g>
		<g>
			<path d="M165.488,138.344c0,0,3.32,10.155,12.39,17.146c0.018,0.017,0.033,0.031,0.053,0.048
				c0,0,0.025,0.015,0.062,0.041c0.586,0.447,1.194,0.886,1.832,1.302c2.967,2.328,8.184,7.46,6.364,13.699
				c-2.489,8.562,15.578,4.501,13.095-9.133c-2.484-13.631-17.281-9.667-17.281-9.667l0,0c-2.896-2.922-5.646-6.809-6.967-11.733" style="fill:#F2CD5E;"></path>
			<path d="M189.47,176.57c-1.314,0.001-2.496-0.337-3.395-1.023c-0.885-0.676-2.232-2.272-1.328-5.385
				c1.542-5.286-2.946-9.811-5.8-12.061c-0.585-0.384-1.182-0.808-1.818-1.293l-0.21-0.162
				c-9.296-7.188-12.716-17.403-12.857-17.836l2.851-0.934c0.032,0.098,3.308,9.818,11.881,16.426l0.07,0.058
				c0.004,0.002,0.008,0.005,0.012,0.008c0.644,0.49,1.213,0.896,1.768,1.258l0.106,0.076c3.446,2.704,8.923,8.288,6.879,15.299
				c-0.31,1.062-0.219,1.79,0.268,2.161c0.899,0.688,3.204,0.557,5.503-0.85c1.338-0.819,5.608-4.004,4.408-10.596
				c-0.612-3.356-2.096-5.802-4.411-7.268c-4.573-2.896-10.943-1.237-11.007-1.219l-0.841,0.225l-0.612-0.618
				c-3.662-3.695-6.135-7.867-7.351-12.4l2.898-0.777c1.015,3.787,3.037,7.308,6.014,10.477c2.177-0.419,7.908-1.131,12.503,1.778
				c3.053,1.933,4.989,5.05,5.758,9.266c1.041,5.715-1.125,10.833-5.793,13.691C193.128,175.996,191.186,176.57,189.47,176.57z" style="fill:#6E6E96;"></path>
		</g>
		<g>
			<path d="M203.681,126.023c0,22.149-25.779,47.55-57.576,47.55s-57.575-25.399-57.575-47.55
				c0-22.151,25.777-40.106,57.575-40.106C177.902,85.917,203.681,103.873,203.681,126.023z" style="fill:#FFD863;"></path>
			<path d="M146.105,175.073c-33.27,0-59.075-26.367-59.075-49.05c0-22.942,26.501-41.606,59.075-41.606
				c32.575,0,59.076,18.665,59.076,41.606C205.181,148.706,179.375,175.073,146.105,175.073z M146.105,87.417
				c-30.92,0-56.075,17.319-56.075,38.606c0,10.421,6.113,21.991,16.352,30.952c11.124,9.736,25.231,15.098,39.724,15.098
				s28.6-5.361,39.724-15.098c10.239-8.961,16.353-20.532,16.353-30.952C202.181,104.736,177.026,87.417,146.105,87.417z" style="fill:#6E6E96;"></path>
		</g>
		<path d="M180.605,123.48c0-11.906-5.114-31.954-13.653-34.853c-4.058-1.098-8.336-1.884-12.777-2.315
			c10.666,4.001,17.752,24.056,17.752,37.168c0,15.458-8.652,41.839-28.941,50.011c0,0-2.356-0.171-6.563-0.71
			c3.152,0.515,6.385,0.792,9.688,0.792c1.978,0,3.931-0.099,5.855-0.287C166.126,170.145,180.605,144.011,180.605,123.48z
			 M159.337,123.338c0-13.909-5.859-35.459-16.601-37.35c-4.395,0.176-8.657,0.696-12.733,1.521c1.149,0.819-1.383-0.253,0,0
			c13.535,2.489,20.029,23.318,20.029,35.829c0,18.852-9.267,37.119-28.781,44.77c3.623,1.95,6.156,2.422,10.228,3.659
			C149.974,161.64,159.337,143.273,159.337,123.338z M192.064,101.866c-3.905-3.601-8.664-6.725-14.063-9.235
			c6.562,4.499,12.008,22.867,12.008,33.108c0,15.453-6.664,33.961-20.488,43.106c0,0-7.115,2.471-15.881,4.246
			c9.924-1.256,19.055-4.93,26.726-10.05c13.522-10.049,17.504-23.012,17.504-38.749
			C197.866,114.877,196.491,108.442,192.064,101.866z" style="fill:#6E6E96;"></path>
		<path d="M197.339,107.732c1.27,2.78,1.959,5.703,1.959,8.724
			c0,18.273-24.797,39.229-55.383,39.229c-28.138,0-51.354-17.729-54.897-34.794c-0.311,1.683-0.485,3.394-0.485,5.132
			c0,22.149,25.774,47.55,57.574,47.55s57.576-25.399,57.576-47.55C203.681,119.433,201.382,113.219,197.339,107.732z" style="opacity:0.21;fill:#6E6E96;enable-background:new    ;"></path>
		<path d="M170.831,102.949c-11.472,7.382-38.357-4.006-49.261-20.954
			c-10.905-16.949-10.446-36.671,1.026-44.054c11.472-7.382,29.611,0.372,40.518,17.32
			C174.023,72.211,182.306,95.567,170.831,102.949z" style="fill:#B7DBE3;"></path>
		<path d="M169.845,101.413c-3.316,2.134-8.531,2.572-14.691,1.237c-12.401-2.69-25.579-11.591-32.047-21.644
			c-6.308-9.801-8.914-20.991-6.976-29.938c1.122-5.169,3.7-9.177,7.454-11.593c3.753-2.415,8.469-3.1,13.637-1.979
			c8.945,1.941,18.051,8.951,24.357,18.752c7.215,11.213,14.83,28.038,12.551,38.556C173.478,97.818,172.075,99.979,169.845,101.413
			z M164.652,54.275c-6.819-10.598-16.782-18.203-26.653-20.344c-6.138-1.332-11.805-0.477-16.391,2.475
			c-4.585,2.952-7.714,7.754-9.042,13.89c-2.143,9.871,0.65,22.091,7.471,32.688c6.947,10.801,21.073,20.354,34.345,23.234
			c7.215,1.565,13.246,0.966,17.44-1.733c3.044-1.959,5.021-4.955,5.878-8.905C180.214,83.984,172.607,66.64,164.652,54.275z" style="fill:#6E6E96;"></path>
		<path d="M151.046,98.839c9.514,9.775,36.674,6.304,51.113-7.755c14.438-14.06,18.432-33.38,8.918-43.153
			c-9.519-9.776-28.939-6.303-43.379,7.755C153.255,69.743,141.531,89.063,151.046,98.839z" style="fill:#B7DBE3;"></path>
		<path d="M205.865,53.457c-2.88-2.958-6.793-4.533-11.205-4.822c2.043,5.343,3.225,11.584,3.225,18.259
			c0,15.377-6.24,28.479-14.984,33.491c5.619-1.965,10.982-5.005,15.144-9.054C210.714,78.993,214.216,62.036,205.865,53.457z" style="fill:#DCF2F7;"></path>
		<path d="M149.736,100.113c4.935,5.064,14.384,7.157,25.279,5.594c10.986-1.577,21.346-6.43,28.418-13.313
			c15.139-14.739,19.152-35.257,8.951-45.736c-10.203-10.48-30.822-7.016-45.961,7.721
			C151.927,68.49,138.859,88.936,149.736,100.113z M168.97,56.992c13.697-13.333,31.998-16.827,40.797-7.789
			c8.799,9.036,4.814,27.237-8.881,40.571c-14.291,13.914-40.285,16.261-48.533,7.791C143.978,88.959,155.095,70.501,168.97,56.992z" style="fill:#6E6E96;"></path>
		<g>
			<path d="M146.55,159.597c0,0,3.988,12.195,14.879,20.592c0.023,0.02,0.041,0.039,0.063,0.059
				c0,0,0.03,0.02,0.075,0.048c0.707,0.537,1.437,1.062,2.197,1.567c3.563,2.789,9.828,8.951,7.646,16.447
				c-2.992,10.282,18.711,5.4,15.723-10.97c-2.984-16.371-20.75-11.604-20.75-11.604l0,0c-3.479-3.519-6.787-8.186-8.369-14.097
				c0,0,0.008-4.013-5.104-6.203C146.222,152.573,146.55,159.597,146.55,159.597S145.906,158.955,146.55,159.597
				c0.646,0.645,1.064,1.869,1.064,1.869" style="fill:#FFD863;"></path>
			<path d="M175.338,205.18c-1.516,0-2.872-0.378-3.881-1.147c-1-0.764-2.523-2.578-1.486-6.142
				c1.903-6.538-3.6-12.073-7.085-14.812c-0.709-0.472-1.422-0.98-2.176-1.552l-0.245-0.188
				c-10.188-7.879-14.46-18.798-15.22-20.926l-0.041-0.042l0.02-0.02c-0.055-0.153-0.087-0.252-0.1-0.29l0.578-0.188l0.248-0.249
				l-0.898,0.042c-0.019-0.397-0.111-3.929,2.318-5.614c1.551-1.076,3.615-1.072,6.132,0.005c5.27,2.259,5.922,6.301,6.002,7.342
				c1.253,4.577,3.73,8.841,7.371,12.688c2.441-0.489,9.404-1.453,14.954,2.058c3.592,2.272,5.873,5.949,6.78,10.927
				c1.229,6.733-1.318,12.764-6.813,16.13C179.662,204.509,177.359,205.18,175.338,205.18z M162.431,179.071l0.044,0.03
				c0.739,0.562,1.433,1.056,2.119,1.512l0.096,0.068c4.08,3.194,10.566,9.785,8.162,18.048c-0.41,1.408-0.267,2.39,0.427,2.919
				c1.161,0.888,4.079,0.754,6.95-1.005c1.647-1.009,6.908-4.932,5.43-13.033c-0.75-4.113-2.573-7.114-5.42-8.921
				c-5.572-3.538-13.389-1.522-13.468-1.503l-0.84,0.223l-0.613-0.617c-4.367-4.416-7.312-9.384-8.752-14.764l-0.051-0.191v-0.199
				c-0.003-0.105-0.129-3.079-4.194-4.821c-1.032-0.441-2.431-0.854-3.236-0.301c-0.736,0.506-0.973,1.772-1.025,2.553
				c0.572,0.79,0.903,1.703,0.975,1.913l-0.29,0.099c1.591,3.694,5.766,11.88,13.602,17.922L162.431,179.071z" style="fill:#6E6E96;"></path>
		</g>
		<path d="M146.55,159.597c0,0,3.988,12.195,14.879,20.592
			c0.023,0.02,0.041,0.039,0.063,0.059c0,0,0.03,0.02,0.075,0.048c0.707,0.537,1.437,1.062,2.197,1.567
			c3.563,2.789,9.828,8.951,7.646,16.447c-1.103,3.783,1.141,5.51,4.264,5.366c0.068-0.002,0.139-0.009,0.207-0.017
			c0.166-0.012,0.328-0.023,0.498-0.048c0.106-0.012,0.221-0.031,0.334-0.048c0.127-0.022,0.25-0.046,0.375-0.067
			c0.145-0.029,0.287-0.062,0.432-0.099c0.088-0.022,0.179-0.049,0.265-0.072c0.18-0.049,0.358-0.102,0.541-0.162
			c0.022-0.007,0.047-0.014,0.073-0.022c4.943-1.656,10.32-7.1,8.734-15.801c-0.959-5.255-3.439-8.323-6.369-10.081
			c0.953,1.562,1.701,3.475,2.133,5.843c0.535,2.938,0.275,5.503-0.489,7.676c-0.023,0.051-0.045,0.097-0.06,0.154
			c-0.176,0.483-0.377,0.945-0.602,1.387c-1.91,3.014-7.289,5.488-7.289,3.106c0-2.738-0.609-12.407-13.027-17.647
			c-8.049-3.399-9.158-14.741-9.818-17.28C151.613,160.5,146.55,157.547,146.55,159.597z" style="opacity:0.21;fill:#6E6E96;enable-background:new    ;"></path>
		<path d="M171.007,102.047c-9.92,6.385-33.172-3.464-42.601-18.121c-9.433-14.656-9.034-31.712,0.888-38.096
			c9.922-6.383,25.608,0.322,35.039,14.979C173.765,75.466,180.929,95.663,171.007,102.047z" style="fill:#DCF2F7;"></path>
		<ellipse ry="38.039" rx="27.393" cy="65.864" cx="164.712" style="fill:#B7DBE3;"></ellipse>
		<path d="M164.712,29.651c14.098,0,25.563,16.246,25.563,36.213c0,19.968-11.467,36.213-25.563,36.213
			s-25.566-16.245-25.566-36.213C139.146,45.897,150.615,29.651,164.712,29.651z M135.493,65.865
			c0,21.98,13.104,39.865,29.219,39.865c16.108,0,29.217-17.883,29.217-39.865c0-10.541-2.973-20.472-8.369-27.965
			c-5.522-7.673-12.928-11.9-20.848-11.9C148.601,26,135.493,43.883,135.493,65.865z" style="fill:#6E6E96;"></path>
		<ellipse ry="32.704" rx="21.508" cy="68.485" cx="167.228" style="fill:#DCF2F7;"></ellipse>
		<path d="M159.116,118.443c0,0,3.131,20.232-2,35.926l-9.232,1.196
			L159.116,118.443z" style="opacity:0.21;fill:#6E6E96;enable-background:new    ;"></path>
		<path d="M179.609,113.057c0,0,5.031,17.129,0,32.273l-4.586,2.685
			L179.609,113.057z" style="opacity:0.21;fill:#6E6E96;enable-background:new    ;"></path>
		<path d="M87.065,74.849c-0.387,0-0.773-0.148-1.066-0.445c-0.18-0.182-17.769-18.408-1.733-40.092
			c0.492-0.666,1.431-0.806,2.098-0.314c0.666,0.493,0.807,1.432,0.314,2.098c-6.102,8.251-7.711,16.844-4.784,25.541
			c2.195,6.519,6.198,10.618,6.238,10.658c0.583,0.589,0.577,1.539-0.012,2.121C87.827,74.705,87.446,74.849,87.065,74.849z" style="fill:#6E6E96;"></path>
		<g>
			<circle r="7.388" cy="35.858" cx="86.122" style="fill:#EDA862;"></circle>
			<path d="M86.122,44.746c-4.901,0-8.889-3.987-8.889-8.888c0-4.901,3.987-8.889,8.889-8.889
				c4.901,0,8.888,3.987,8.888,8.889C95.01,40.759,91.023,44.746,86.122,44.746z M86.122,29.969c-3.247,0-5.889,2.642-5.889,5.889
				c0,3.247,2.642,5.888,5.889,5.888c3.247,0,5.888-2.641,5.888-5.888C92.01,32.611,89.369,29.969,86.122,29.969z" style="fill:#6E6E96;"></path>
		</g>
		<path d="M62.961,90.584c-0.386,0-0.772-0.148-1.065-0.445c-0.2-0.202-19.762-20.47-1.923-44.593
			c0.493-0.667,1.432-0.807,2.098-0.314c0.666,0.493,0.807,1.432,0.314,2.098C46.096,69.358,63.29,87.279,64.03,88.031
			c0.581,0.59,0.574,1.539-0.015,2.121C63.722,90.44,63.342,90.584,62.961,90.584z" style="fill:#6E6E96;"></path>
		<g>
			<circle r="6.678" cy="46.314" cx="60.327" style="fill:#EDA862;"></circle>
			<path d="M60.327,54.492c-4.51,0-8.179-3.668-8.179-8.178c0-4.51,3.669-8.179,8.179-8.179
				c4.509,0,8.178,3.669,8.178,8.179C68.505,50.823,64.837,54.492,60.327,54.492z M60.327,41.135c-2.855,0-5.179,2.323-5.179,5.179
				c0,2.855,2.323,5.178,5.179,5.178c2.855,0,5.178-2.323,5.178-5.178C65.505,43.459,63.182,41.135,60.327,41.135z" style="fill:#6E6E96;"></path>
		</g>
		<path d="M134.616,95.792c-10.828-21.564-34.462-32.233-54.424-23.928
			c-20.086,8.356-29.161,32.893-21.239,55.897c-4.168,4.166-3.365,11.397-0.889,17.352c7.149,17.181,32.706,20.428,56.916,10.353
			c24.208-10.072,41.136-35.024,33.989-52.208C146.466,97.244,140.698,94.443,134.616,95.792z" style="fill:#FFD863;"></path>
		
			<ellipse ry="4.135" rx="5.773" cy="109.168" cx="85.715" style="fill:#6E6E96;" transform="matrix(0.3621 0.9321 -0.9321 0.3621 156.4354 -10.2607)"></ellipse>
		
			<ellipse ry="3.812" rx="5.126" cy="99.557" cx="106.505" style="fill:#6E6E96;" transform="matrix(0.4372 0.8994 -0.8994 0.4372 149.4789 -39.7562)"></ellipse>
		<path d="M93.335,117.696c1.731-6.532,8.765-13.865,18.706-18.653c13.706-6.599,29.966-8.08,33.582-0.57" style="fill:#FFD863;"></path>
		<path d="M105.862,113.097c5.811-10.516-22.651-3.245-38.428,11.977
			C67.434,125.077,92.92,136.53,105.862,113.097z" style="fill:#FFD863;"></path>
		<path d="M148.726,103.499c-2.504-6.011-8.272-8.812-14.354-7.466
			C123.546,74.469,99.913,63.801,79.95,72.107c-20.086,8.357-29.162,32.894-21.241,55.897c-4.167,4.167-3.365,11.396-0.889,17.351
			c7.15,17.184,32.706,20.428,56.916,10.353C138.948,145.632,155.874,120.681,148.726,103.499z M112.184,144.777
			c-20.858,8.68-42.879,5.885-49.04-8.922c-2.134-5.128-2.825-11.358,0.767-14.949c-6.825-19.822,0.994-40.962,18.302-48.162
			c17.198-7.157,41.213,5.688,50.543,24.268c5.242-1.16,10.209,1.254,12.367,6.434C151.281,118.25,133.044,136.095,112.184,144.777z" style="opacity:0.34;fill:#C2944D;enable-background:new    ;"></path>
		<path d="M136.249,94.97c-11.277-22.453-36.208-33.345-56.757-24.794
			c-20.746,8.634-30.525,34.188-22.266,58.179l0.437-1.886c-4.126,4.124-4.606,11.354-1.283,19.343
			c2.626,6.311,7.729,11.178,14.759,14.078c11.939,4.923,28.59,3.896,44.542-2.739c25.739-10.71,42.409-36.731,34.973-54.596
			c-2.776-6.676-9.379-10.11-16.43-8.548L136.249,94.97z M147.281,103.959c6.581,15.813-9.457,40.024-33.002,49.82
			c-15.078,6.274-30.685,7.299-41.75,2.733c-6.2-2.559-10.501-6.629-12.777-12.104c-2.111-5.074-3.091-11.772,0.494-15.355
			l0.807-0.806l-0.372-1.08c-7.634-22.172,1.245-45.724,20.216-53.617c18.789-7.818,41.668,2.312,52.088,23.062l0.64,1.271
			l1.389-0.308C140.361,96.387,145.177,98.894,147.281,103.959z" style="fill:#6E6E96;"></path>
		<path d="M98.428,136.549c-2.173,0-3.564-0.258-3.672-0.279c-0.813-0.155-1.347-0.941-1.19-1.755
			c0.156-0.813,0.938-1.34,1.753-1.191l0,0c0.72,0.137,17.754,3.095,26.104-15.689c0.337-0.757,1.223-1.095,1.98-0.761
			c0.757,0.336,1.098,1.223,0.761,1.98c-4.867,10.947-12.587,15.109-18.206,16.672C103.051,136.333,100.413,136.549,98.428,136.549z" style="fill:#6E6E96;"></path>
		<path d="M96.448,119.592c0.736,1.295-2.472,2.773-6.247,4.918
			c-3.774,2.146-6.683,4.146-7.419,2.851c-0.738-1.296,0.979-5.397,4.752-7.544C91.308,117.673,95.711,118.296,96.448,119.592z" style="opacity:0.35;fill:#FFFFFF;enable-background:new    ;"></path>
		<path d="M119.142,106.193c0.717,1.305-2.509,2.74-6.31,4.837
			s-6.734,4.061-7.457,2.755c-0.721-1.305,1.051-5.384,4.851-7.481C114.027,104.207,118.421,104.887,119.142,106.193z" style="opacity:0.35;fill:#FFFFFF;enable-background:new    ;"></path>
		<path d="M145.273,133.046c0,0-19.629,20.902-12.436,21.713
			l-8.472-1.989L145.273,133.046z" style="opacity:0.21;fill:#6E6E96;enable-background:new    ;"></path>
	</g>
	<g>
		
			<ellipse ry="9.776" rx="5.964" cy="163.401" cx="231.173" style="fill:#EEFFE2;" transform="matrix(0.6532 -0.7572 0.7572 0.6532 -43.5503 231.7222)"></ellipse>
		<path d="M234.974,172.722c-2.811,0-5.973-1.338-8.676-3.67c-4.788-4.13-6.397-9.849-3.663-13.018
			c1.104-1.28,2.741-1.956,4.736-1.956c2.811,0,5.973,1.337,8.677,3.67c4.788,4.13,6.396,9.848,3.663,13.017
			C238.608,172.046,236.969,172.722,234.974,172.722z M227.371,157.079c-0.764,0-1.812,0.158-2.465,0.915
			c-1.379,1.6-0.342,5.602,3.351,8.787c2.135,1.842,4.646,2.941,6.717,2.941c0.765,0,1.812-0.159,2.466-0.916
			c1.379-1.599,0.342-5.601-3.351-8.786C231.953,158.178,229.443,157.079,227.371,157.079z" style="fill:#CCCCDE;"></path>
	</g>
	<g>
		
			<ellipse ry="9.776" rx="5.964" cy="89.248" cx="27.661" style="fill:#FFE4E2;" transform="matrix(0.6532 -0.7572 0.7572 0.6532 -57.9841 51.8957)"></ellipse>
		<path d="M31.463,98.57c-2.811,0-5.973-1.338-8.677-3.67c-2.183-1.883-3.796-4.196-4.542-6.514
			c-0.829-2.576-0.517-4.885,0.879-6.503c1.104-1.28,2.742-1.956,4.737-1.956c2.811,0,5.973,1.338,8.677,3.67
			c4.788,4.13,6.396,9.848,3.663,13.017C35.095,97.893,33.457,98.57,31.463,98.57z M23.86,82.926c-0.764,0-1.812,0.159-2.465,0.916
			c-0.925,1.073-0.582,2.732-0.294,3.625c0.571,1.774,1.899,3.655,3.645,5.161c2.135,1.842,4.646,2.942,6.717,2.942
			c0.764,0,1.812-0.159,2.465-0.916c1.379-1.599,0.342-5.601-3.351-8.786C28.442,84.026,25.931,82.926,23.86,82.926z" style="fill:#CCCCDE;"></path>
	</g>
	<g>
		
			<ellipse ry="7.654" rx="4.669" cy="224.943" cx="148.62" style="fill:#FFFFFF;" transform="matrix(0.6532 -0.7572 0.7572 0.6532 -118.7833 190.5556)"></ellipse>
		<path d="M151.596,232.566c-2.277,0-4.83-1.076-7.005-2.952c-1.754-1.513-3.051-3.376-3.652-5.247
			c-0.676-2.098-0.401-4.067,0.751-5.402c0.915-1.062,2.319-1.646,3.956-1.646c2.276,0,4.83,1.076,7.004,2.952
			c3.887,3.353,5.161,8.031,2.901,10.65C154.636,231.982,153.232,232.566,151.596,232.566z M145.646,220.319
			c-0.531,0-1.254,0.105-1.685,0.604c-0.453,0.525-0.515,1.446-0.167,2.525c0.429,1.333,1.434,2.753,2.756,3.894
			c1.614,1.393,3.501,2.224,5.046,2.224c0.53,0,1.253-0.104,1.684-0.604c0.978-1.133,0.077-4.119-2.589-6.42
			C149.076,221.15,147.191,220.319,145.646,220.319z" style="fill:#CCCCDE;"></path>
	</g>
	<g style="opacity:0.4;enable-background:new    ;">
		
			<ellipse ry="8.28" rx="5.052" cy="226.173" cx="224.149" style="fill:#EEFFE2;" transform="matrix(0.6531 -0.7572 0.7572 0.6531 -93.5186 248.1824)"></ellipse>
		<path d="M227.367,234.299c-2.435,0-5.168-1.153-7.498-3.164c-4.152-3.582-5.525-8.567-3.126-11.35
			c0.98-1.137,2.428-1.737,4.186-1.737c2.435,0,5.168,1.153,7.499,3.164c4.152,3.582,5.525,8.567,3.126,11.35
			C230.573,233.698,229.126,234.299,227.367,234.299z M220.929,221.048c-0.599,0-1.418,0.121-1.914,0.696
			c-1.097,1.272-0.212,4.51,2.813,7.119c1.768,1.524,3.839,2.436,5.539,2.436c0.6,0,1.419-0.121,1.915-0.696
			c1.097-1.272,0.212-4.51-2.813-7.119C224.7,221.959,222.63,221.048,220.929,221.048z" style="fill:#CCCCDE;"></path>
	</g>
</g>
</svg>
